999
Exported by CATT-Acoustic v9.1g Copyright © CATT 1988-2022
999
PROJECT= RIR
  0
SECTION
  2
ENTITIES
  0
3DFACE
  8
CATTEXP
 10
   3.100000
 20
   5.310000
 30
   0.000000
 11
   3.100000
 21
   5.310000
 31
   2.000000
 12
   2.260000
 22
   5.490000
 32
   2.000000
 13
   2.260000
 23
   5.490000
 33
   0.000000
 62
253
  0
3DFACE
  8
CATTEXP
 10
   2.260000
 20
   5.490000
 30
   0.000000
 11
   2.260000
 21
   5.490000
 31
   2.000000
 12
   3.100000
 22
   5.310000
 32
   2.000000
 13
   3.100000
 23
   5.310000
 33
   0.000000
 62
253
  0
3DFACE
  8
CATTEXP
 10
   4.810000
 20
   2.690000
 30
   0.970000
 11
   4.810000
 21
   2.690000
 31
   0.490000
 12
   4.650000
 22
   3.250000
 32
   0.490000
 13
   4.650000
 23
   3.250000
 33
   0.970000
 62
 34
  0
3DFACE
  8
CATTEXP
 10
   4.650000
 20
   3.250000
 30
   0.970000
 11
   4.650000
 21
   3.250000
 31
   0.490000
 12
   4.810000
 22
   2.690000
 32
   0.490000
 13
   4.810000
 23
   2.690000
 33
   0.970000
 62
 34
  0
3DFACE
  8
CATTEXP
 10
   0.000000
 20
   5.120000
 30
   2.400000
 11
   3.400000
 21
   5.120000
 31
   2.000000
 12
   3.400000
 22
   5.120000
 32
   0.000000
 13
   3.400000
 23
   5.120000
 33
   0.000000
 62
 33
  0
3DFACE
  8
CATTEXP
 10
   4.200000
 20
   5.120000
 30
   2.000000
 11
   3.400000
 21
   5.120000
 31
   2.000000
 12
   0.000000
 22
   5.120000
 32
   2.400000
 13
   0.000000
 23
   5.120000
 33
   2.400000
 62
 33
  0
3DFACE
  8
CATTEXP
 10
   4.530000
 20
   5.120000
 30
   2.400000
 11
   4.200000
 21
   5.120000
 31
   2.000000
 12
   0.000000
 22
   5.120000
 32
   2.400000
 13
   0.000000
 23
   5.120000
 33
   2.400000
 62
 33
  0
3DFACE
  8
CATTEXP
 10
   4.190000
 20
   5.120000
 30
   0.000000
 11
   4.200000
 21
   5.120000
 31
   2.000000
 12
   4.530000
 22
   5.120000
 32
   2.400000
 13
   4.530000
 23
   5.120000
 33
   2.400000
 62
 33
  0
3DFACE
  8
CATTEXP
 10
   4.530000
 20
   5.120000
 30
   0.000000
 11
   4.190000
 21
   5.120000
 31
   0.000000
 12
   4.530000
 22
   5.120000
 32
   2.400000
 13
   4.530000
 23
   5.120000
 33
   2.400000
 62
 33
  0
3DFACE
  8
CATTEXP
 10
   0.000000
 20
   5.120000
 30
   0.000000
 11
   0.000000
 21
   5.120000
 31
   2.400000
 12
   3.400000
 22
   5.120000
 32
   0.000000
 13
   3.400000
 23
   5.120000
 33
   0.000000
 62
 33
  0
3DFACE
  8
CATTEXP
 10
   2.680000
 20
   5.120000
 30
   1.250000
 11
   1.180000
 21
   5.120000
 31
   1.250000
 12
   1.180000
 22
   5.120000
 32
   1.790000
 13
   2.680000
 23
   5.120000
 33
   1.790000
 62
 33
  0
3DFACE
  8
CATTEXP
 10
   0.000000
 20
   5.120000
 30
   2.400000
 11
   3.400000
 21
   5.120000
 31
   2.000000
 12
   3.400000
 22
   5.120000
 32
   0.000000
 13
   3.400000
 23
   5.120000
 33
   0.000000
 62
 40
  0
3DFACE
  8
CATTEXP
 10
   4.200000
 20
   5.120000
 30
   2.000000
 11
   3.400000
 21
   5.120000
 31
   2.000000
 12
   0.000000
 22
   5.120000
 32
   2.400000
 13
   0.000000
 23
   5.120000
 33
   2.400000
 62
 40
  0
3DFACE
  8
CATTEXP
 10
   4.530000
 20
   5.120000
 30
   2.400000
 11
   4.200000
 21
   5.120000
 31
   2.000000
 12
   0.000000
 22
   5.120000
 32
   2.400000
 13
   0.000000
 23
   5.120000
 33
   2.400000
 62
 40
  0
3DFACE
  8
CATTEXP
 10
   4.190000
 20
   5.120000
 30
   0.000000
 11
   4.200000
 21
   5.120000
 31
   2.000000
 12
   4.530000
 22
   5.120000
 32
   2.400000
 13
   4.530000
 23
   5.120000
 33
   2.400000
 62
 40
  0
3DFACE
  8
CATTEXP
 10
   4.530000
 20
   5.120000
 30
   0.000000
 11
   4.190000
 21
   5.120000
 31
   0.000000
 12
   4.530000
 22
   5.120000
 32
   2.400000
 13
   4.530000
 23
   5.120000
 33
   2.400000
 62
 40
  0
3DFACE
  8
CATTEXP
 10
   0.000000
 20
   5.120000
 30
   0.000000
 11
   0.000000
 21
   5.120000
 31
   2.400000
 12
   3.400000
 22
   5.120000
 32
   0.000000
 13
   3.400000
 23
   5.120000
 33
   0.000000
 62
 40
  0
3DFACE
  8
CATTEXP
 10
   4.190000
 20
   4.270000
 30
   0.000000
 11
   4.190000
 21
   5.120000
 31
   0.000000
 12
   4.200000
 22
   5.120000
 32
   2.000000
 13
   4.200000
 23
   4.270000
 33
   2.000000
 62
253
  0
3DFACE
  8
CATTEXP
 10
   4.200000
 20
   4.270000
 30
   2.000000
 11
   4.200000
 21
   5.120000
 31
   2.000000
 12
   4.190000
 22
   5.120000
 32
   0.000000
 13
   4.190000
 23
   4.270000
 33
   0.000000
 62
253
  0
3DFACE
  8
CATTEXP
 10
   7.020000
 20
   2.740000
 30
   0.970000
 11
   7.080000
 21
   3.330000
 31
   0.970000
 12
   7.080000
 22
   3.330000
 32
   0.490000
 13
   7.080000
 23
   3.330000
 33
   0.490000
 62
 34
  0
3DFACE
  8
CATTEXP
 10
   7.020000
 20
   2.740000
 30
   0.490000
 11
   7.020000
 21
   2.740000
 31
   0.970000
 12
   7.080000
 22
   3.330000
 32
   0.490000
 13
   7.080000
 23
   3.330000
 33
   0.490000
 62
 34
  0
3DFACE
  8
CATTEXP
 10
   7.030000
 20
   2.850000
 30
   0.490000
 11
   7.020000
 21
   2.740000
 31
   0.490000
 12
   7.080000
 22
   3.330000
 32
   0.490000
 13
   7.080000
 23
   3.330000
 33
   0.490000
 62
 34
  0
3DFACE
  8
CATTEXP
 10
   7.020000
 20
   2.740000
 30
   0.970000
 11
   7.020000
 21
   2.740000
 31
   0.490000
 12
   7.030000
 22
   2.850000
 32
   0.490000
 13
   7.030000
 23
   2.850000
 33
   0.490000
 62
 34
  0
3DFACE
  8
CATTEXP
 10
   7.080000
 20
   3.330000
 30
   0.970000
 11
   7.020000
 21
   2.740000
 31
   0.970000
 12
   7.030000
 22
   2.850000
 32
   0.490000
 13
   7.030000
 23
   2.850000
 33
   0.490000
 62
 34
  0
3DFACE
  8
CATTEXP
 10
   7.080000
 20
   3.330000
 30
   0.490000
 11
   7.080000
 21
   3.330000
 31
   0.970000
 12
   7.030000
 22
   2.850000
 32
   0.490000
 13
   7.030000
 23
   2.850000
 33
   0.490000
 62
 34
  0
3DFACE
  8
CATTEXP
 10
   3.100000
 20
   5.290000
 30
   2.400000
 11
   0.870000
 21
   5.290000
 31
   1.930000
 12
   0.870000
 22
   5.290000
 32
   0.000000
 13
   0.870000
 23
   5.290000
 33
   0.000000
 62
 40
  0
3DFACE
  8
CATTEXP
 10
   0.000000
 20
   5.290000
 30
   1.930000
 11
   0.870000
 21
   5.290000
 31
   1.930000
 12
   3.100000
 22
   5.290000
 32
   2.400000
 13
   3.100000
 23
   5.290000
 33
   2.400000
 62
 40
  0
3DFACE
  8
CATTEXP
 10
   0.000000
 20
   5.290000
 30
   2.400000
 11
   0.000000
 21
   5.290000
 31
   1.930000
 12
   3.100000
 22
   5.290000
 32
   2.400000
 13
   3.100000
 23
   5.290000
 33
   2.400000
 62
 40
  0
3DFACE
  8
CATTEXP
 10
   3.100000
 20
   5.290000
 30
   0.000000
 11
   3.100000
 21
   5.290000
 31
   2.400000
 12
   0.870000
 22
   5.290000
 32
   0.000000
 13
   0.870000
 23
   5.290000
 33
   0.000000
 62
 40
  0
3DFACE
  8
CATTEXP
 10
   0.500000
 20
   4.750000
 30
   0.800000
 11
   0.500000
 21
   1.530000
 31
   0.800000
 12
   0.280000
 22
   1.530000
 32
   0.800000
 13
   0.280000
 23
   1.530000
 33
   0.800000
 62
  5
  0
3DFACE
  8
CATTEXP
 10
   0.280000
 20
   4.970000
 30
   0.800000
 11
   0.500000
 21
   4.750000
 31
   0.800000
 12
   0.280000
 22
   1.530000
 32
   0.800000
 13
   0.280000
 23
   1.530000
 33
   0.800000
 62
  5
  0
3DFACE
  8
CATTEXP
 10
   2.410000
 20
   4.750000
 30
   0.800000
 11
   0.500000
 21
   4.750000
 31
   0.800000
 12
   0.280000
 22
   4.970000
 32
   0.800000
 13
   0.280000
 23
   4.970000
 33
   0.800000
 62
  5
  0
3DFACE
  8
CATTEXP
 10
   2.410000
 20
   4.970000
 30
   0.800000
 11
   2.410000
 21
   4.750000
 31
   0.800000
 12
   0.280000
 22
   4.970000
 32
   0.800000
 13
   0.280000
 23
   4.970000
 33
   0.800000
 62
  5
  0
3DFACE
  8
CATTEXP
 10
   5.170000
 20
   4.480000
 30
   0.960000
 11
   7.360000
 21
   4.480000
 31
   0.960000
 12
   7.360000
 22
   4.480000
 32
   0.000000
 13
   7.360000
 23
   4.480000
 33
   0.000000
 62
 44
  0
3DFACE
  8
CATTEXP
 10
   4.530000
 20
   4.480000
 30
   0.000000
 11
   5.170000
 21
   4.480000
 31
   0.960000
 12
   7.360000
 22
   4.480000
 32
   0.000000
 13
   7.360000
 23
   4.480000
 33
   0.000000
 62
 44
  0
3DFACE
  8
CATTEXP
 10
   5.170000
 20
   4.480000
 30
   2.400000
 11
   5.170000
 21
   4.480000
 31
   0.960000
 12
   4.530000
 22
   4.480000
 32
   0.000000
 13
   4.530000
 23
   4.480000
 33
   0.000000
 62
 44
  0
3DFACE
  8
CATTEXP
 10
   4.530000
 20
   4.480000
 30
   2.400000
 11
   5.170000
 21
   4.480000
 31
   2.400000
 12
   4.530000
 22
   4.480000
 32
   0.000000
 13
   4.530000
 23
   4.480000
 33
   0.000000
 62
 44
  0
3DFACE
  8
CATTEXP
 10
   3.100000
 20
   5.290000
 30
   2.400000
 11
   3.100000
 21
   5.290000
 31
   0.000000
 12
   3.100000
 22
   5.310000
 32
   0.000000
 13
   3.100000
 23
   5.310000
 33
   0.000000
 62
 40
  0
3DFACE
  8
CATTEXP
 10
   3.100000
 20
   5.310000
 30
   2.000000
 11
   3.100000
 21
   5.290000
 31
   2.400000
 12
   3.100000
 22
   5.310000
 32
   0.000000
 13
   3.100000
 23
   5.310000
 33
   0.000000
 62
 40
  0
3DFACE
  8
CATTEXP
 10
   3.100000
 20
   7.700000
 30
   2.400000
 11
   3.100000
 21
   5.290000
 31
   2.400000
 12
   3.100000
 22
   5.310000
 32
   2.000000
 13
   3.100000
 23
   5.310000
 33
   2.000000
 62
 40
  0
3DFACE
  8
CATTEXP
 10
   3.100000
 20
   6.090000
 30
   2.000000
 11
   3.100000
 21
   7.700000
 31
   2.400000
 12
   3.100000
 22
   5.310000
 32
   2.000000
 13
   3.100000
 23
   5.310000
 33
   2.000000
 62
 40
  0
3DFACE
  8
CATTEXP
 10
   3.100000
 20
   7.700000
 30
   0.000000
 11
   3.100000
 21
   7.700000
 31
   2.400000
 12
   3.100000
 22
   6.090000
 32
   2.000000
 13
   3.100000
 23
   6.090000
 33
   2.000000
 62
 40
  0
3DFACE
  8
CATTEXP
 10
   3.100000
 20
   6.090000
 30
   0.000000
 11
   3.100000
 21
   7.700000
 31
   0.000000
 12
   3.100000
 22
   6.090000
 32
   2.000000
 13
   3.100000
 23
   6.090000
 33
   2.000000
 62
 40
  0
3DFACE
  8
CATTEXP
 10
   5.400000
 20
   6.750000
 30
   2.000000
 11
   5.400000
 21
   7.700000
 31
   2.400000
 12
   5.400000
 22
   5.290000
 32
   2.400000
 13
   5.400000
 23
   5.290000
 33
   2.400000
 62
 40
  0
3DFACE
  8
CATTEXP
 10
   5.400000
 20
   7.700000
 30
   0.000000
 11
   5.400000
 21
   7.700000
 31
   2.400000
 12
   5.400000
 22
   6.750000
 32
   2.000000
 13
   5.400000
 23
   6.750000
 33
   2.000000
 62
 40
  0
3DFACE
  8
CATTEXP
 10
   5.400000
 20
   6.750000
 30
   0.000000
 11
   5.400000
 21
   7.700000
 31
   0.000000
 12
   5.400000
 22
   6.750000
 32
   2.000000
 13
   5.400000
 23
   6.750000
 33
   2.000000
 62
 40
  0
3DFACE
  8
CATTEXP
 10
   5.400000
 20
   5.960000
 30
   2.000000
 11
   5.400000
 21
   6.750000
 31
   2.000000
 12
   5.400000
 22
   5.290000
 32
   2.400000
 13
   5.400000
 23
   5.290000
 33
   2.400000
 62
 40
  0
3DFACE
  8
CATTEXP
 10
   5.400000
 20
   5.960000
 30
   0.000000
 11
   5.400000
 21
   5.960000
 31
   2.000000
 12
   5.400000
 22
   5.290000
 32
   2.400000
 13
   5.400000
 23
   5.290000
 33
   2.400000
 62
 40
  0
3DFACE
  8
CATTEXP
 10
   5.400000
 20
   5.290000
 30
   0.000000
 11
   5.400000
 21
   5.960000
 31
   0.000000
 12
   5.400000
 22
   5.290000
 32
   2.400000
 13
   5.400000
 23
   5.290000
 33
   2.400000
 62
 40
  0
3DFACE
  8
CATTEXP
 10
   5.570000
 20
   5.860000
 30
   1.920000
 11
   5.570000
 21
   5.290000
 31
   1.920000
 12
   5.570000
 22
   5.290000
 32
   2.400000
 13
   5.570000
 23
   5.290000
 33
   2.400000
 62
254
  0
3DFACE
  8
CATTEXP
 10
   5.570000
 20
   5.960000
 30
   2.000000
 11
   5.570000
 21
   5.860000
 31
   1.920000
 12
   5.570000
 22
   5.290000
 32
   2.400000
 13
   5.570000
 23
   5.290000
 33
   2.400000
 62
254
  0
3DFACE
  8
CATTEXP
 10
   5.570000
 20
   5.860000
 30
   0.000000
 11
   5.570000
 21
   5.860000
 31
   1.920000
 12
   5.570000
 22
   5.960000
 32
   2.000000
 13
   5.570000
 23
   5.960000
 33
   2.000000
 62
254
  0
3DFACE
  8
CATTEXP
 10
   5.570000
 20
   5.960000
 30
   0.000000
 11
   5.570000
 21
   5.860000
 31
   0.000000
 12
   5.570000
 22
   5.960000
 32
   2.000000
 13
   5.570000
 23
   5.960000
 33
   2.000000
 62
254
  0
3DFACE
  8
CATTEXP
 10
   5.570000
 20
   6.750000
 30
   2.000000
 11
   5.570000
 21
   5.960000
 31
   2.000000
 12
   5.570000
 22
   5.290000
 32
   2.400000
 13
   5.570000
 23
   5.290000
 33
   2.400000
 62
254
  0
3DFACE
  8
CATTEXP
 10
   5.570000
 20
   7.700000
 30
   2.400000
 11
   5.570000
 21
   6.750000
 31
   2.000000
 12
   5.570000
 22
   5.290000
 32
   2.400000
 13
   5.570000
 23
   5.290000
 33
   2.400000
 62
254
  0
3DFACE
  8
CATTEXP
 10
   5.570000
 20
   6.750000
 30
   0.000000
 11
   5.570000
 21
   6.750000
 31
   2.000000
 12
   5.570000
 22
   7.700000
 32
   2.400000
 13
   5.570000
 23
   7.700000
 33
   2.400000
 62
254
  0
3DFACE
  8
CATTEXP
 10
   5.570000
 20
   7.700000
 30
   0.000000
 11
   5.570000
 21
   6.750000
 31
   0.000000
 12
   5.570000
 22
   7.700000
 32
   2.400000
 13
   5.570000
 23
   7.700000
 33
   2.400000
 62
254
  0
3DFACE
  8
CATTEXP
 10
   1.230000
 20
   1.770000
 30
   0.370000
 11
   0.500000
 21
   1.770000
 31
   0.370000
 12
   0.500000
 22
   4.750000
 32
   0.370000
 13
   0.500000
 23
   4.750000
 33
   0.370000
 62
  5
  0
3DFACE
  8
CATTEXP
 10
   1.230000
 20
   3.990000
 30
   0.370000
 11
   1.230000
 21
   1.770000
 31
   0.370000
 12
   0.500000
 22
   4.750000
 32
   0.370000
 13
   0.500000
 23
   4.750000
 33
   0.370000
 62
  5
  0
3DFACE
  8
CATTEXP
 10
   2.410000
 20
   3.990000
 30
   0.370000
 11
   1.230000
 21
   3.990000
 31
   0.370000
 12
   0.500000
 22
   4.750000
 32
   0.370000
 13
   0.500000
 23
   4.750000
 33
   0.370000
 62
  5
  0
3DFACE
  8
CATTEXP
 10
   2.410000
 20
   4.750000
 30
   0.370000
 11
   2.410000
 21
   3.990000
 31
   0.370000
 12
   0.500000
 22
   4.750000
 32
   0.370000
 13
   0.500000
 23
   4.750000
 33
   0.370000
 62
  5
  0
3DFACE
  8
CATTEXP
 10
   5.820000
 20
   3.590000
 30
   0.970000
 11
   5.820000
 21
   3.590000
 31
   0.490000
 12
   6.370000
 22
   3.630000
 32
   0.490000
 13
   6.370000
 23
   3.630000
 33
   0.970000
 62
 34
  0
3DFACE
  8
CATTEXP
 10
   6.370000
 20
   3.630000
 30
   0.970000
 11
   6.370000
 21
   3.630000
 31
   0.490000
 12
   5.820000
 22
   3.590000
 32
   0.490000
 13
   5.820000
 23
   3.590000
 33
   0.970000
 62
 34
  0
3DFACE
  8
CATTEXP
 10
   3.400000
 20
   5.290000
 30
   2.000000
 11
   3.250000
 21
   5.290000
 31
   2.400000
 12
   3.250000
 22
   5.290000
 32
   0.000000
 13
   3.250000
 23
   5.290000
 33
   0.000000
 62
 40
  0
3DFACE
  8
CATTEXP
 10
   5.400000
 20
   5.290000
 30
   2.400000
 11
   3.250000
 21
   5.290000
 31
   2.400000
 12
   3.400000
 22
   5.290000
 32
   2.000000
 13
   3.400000
 23
   5.290000
 33
   2.000000
 62
 40
  0
3DFACE
  8
CATTEXP
 10
   4.200000
 20
   5.290000
 30
   2.000000
 11
   5.400000
 21
   5.290000
 31
   2.400000
 12
   3.400000
 22
   5.290000
 32
   2.000000
 13
   3.400000
 23
   5.290000
 33
   2.000000
 62
 40
  0
3DFACE
  8
CATTEXP
 10
   5.400000
 20
   5.290000
 30
   0.000000
 11
   5.400000
 21
   5.290000
 31
   2.400000
 12
   4.200000
 22
   5.290000
 32
   2.000000
 13
   4.200000
 23
   5.290000
 33
   2.000000
 62
 40
  0
3DFACE
  8
CATTEXP
 10
   4.190000
 20
   5.290000
 30
   0.000000
 11
   5.400000
 21
   5.290000
 31
   0.000000
 12
   4.200000
 22
   5.290000
 32
   2.000000
 13
   4.200000
 23
   5.290000
 33
   2.000000
 62
 40
  0
3DFACE
  8
CATTEXP
 10
   3.400000
 20
   5.290000
 30
   0.000000
 11
   3.400000
 21
   5.290000
 31
   2.000000
 12
   3.250000
 22
   5.290000
 32
   0.000000
 13
   3.250000
 23
   5.290000
 33
   0.000000
 62
 40
  0
3DFACE
  8
CATTEXP
 10
   7.360000
 20
   1.770000
 30
   2.400000
 11
   5.490000
 21
   1.770000
 31
   2.400000
 12
   5.490000
 22
   1.770000
 32
   0.000000
 13
   5.490000
 23
   1.770000
 33
   0.000000
 62
 40
  0
3DFACE
  8
CATTEXP
 10
   7.360000
 20
   1.770000
 30
   0.000000
 11
   7.360000
 21
   1.770000
 31
   2.400000
 12
   5.490000
 22
   1.770000
 32
   0.000000
 13
   5.490000
 23
   1.770000
 33
   0.000000
 62
 40
  0
3DFACE
  8
CATTEXP
 10
   5.490000
 20
   1.770000
 30
   0.000000
 11
   5.490000
 21
   1.770000
 31
   2.400000
 12
   5.490000
 22
   0.000000
 32
   2.400000
 13
   5.490000
 23
   0.000000
 33
   2.400000
 62
 40
  0
3DFACE
  8
CATTEXP
 10
   5.490000
 20
   0.000000
 30
   0.000000
 11
   5.490000
 21
   1.770000
 31
   0.000000
 12
   5.490000
 22
   0.000000
 32
   2.400000
 13
   5.490000
 23
   0.000000
 33
   2.400000
 62
 40
  0
3DFACE
  8
CATTEXP
 10
   4.450000
 20
   7.700000
 30
   2.400000
 11
   4.450000
 21
   7.700000
 31
   0.000000
 12
   4.450000
 22
   6.120000
 32
   0.000000
 13
   4.450000
 23
   6.120000
 33
   0.000000
 62
 40
  0
3DFACE
  8
CATTEXP
 10
   4.450000
 20
   6.120000
 30
   2.400000
 11
   4.450000
 21
   7.700000
 31
   2.400000
 12
   4.450000
 22
   6.120000
 32
   0.000000
 13
   4.450000
 23
   6.120000
 33
   0.000000
 62
 40
  0
3DFACE
  8
CATTEXP
 10
   4.260000
 20
   7.700000
 30
   0.000000
 11
   4.260000
 21
   7.700000
 31
   2.400000
 12
   4.260000
 22
   6.310000
 32
   2.400000
 13
   4.260000
 23
   6.310000
 33
   0.000000
 62
254
  0
3DFACE
  8
CATTEXP
 10
   3.250000
 20
   6.310000
 30
   2.400000
 11
   3.250000
 21
   7.700000
 31
   2.400000
 12
   3.250000
 22
   7.700000
 32
   0.000000
 13
   3.250000
 23
   6.310000
 33
   0.000000
 62
254
  0
3DFACE
  8
CATTEXP
 10
   5.280000
 20
   2.380000
 30
   0.490000
 11
   5.280000
 21
   2.380000
 31
   0.970000
 12
   5.840000
 22
   2.360000
 32
   0.970000
 13
   5.840000
 23
   2.360000
 33
   0.490000
 62
 34
  0
3DFACE
  8
CATTEXP
 10
   5.840000
 20
   2.360000
 30
   0.490000
 11
   5.840000
 21
   2.360000
 31
   0.970000
 12
   5.280000
 22
   2.380000
 32
   0.970000
 13
   5.280000
 23
   2.380000
 33
   0.490000
 62
 34
  0
3DFACE
  8
CATTEXP
 10
   5.220000
 20
   3.690000
 30
   0.970000
 11
   5.220000
 21
   3.690000
 31
   0.490000
 12
   5.780000
 22
   3.670000
 32
   0.490000
 13
   5.780000
 23
   3.670000
 33
   0.970000
 62
 34
  0
3DFACE
  8
CATTEXP
 10
   5.780000
 20
   3.670000
 30
   0.970000
 11
   5.780000
 21
   3.670000
 31
   0.490000
 12
   5.220000
 22
   3.690000
 32
   0.490000
 13
   5.220000
 23
   3.690000
 33
   0.970000
 62
 34
  0
3DFACE
  8
CATTEXP
 10
   2.510000
 20
   6.180000
 30
   0.320000
 11
   0.570000
 21
   6.180000
 31
   0.320000
 12
   0.570000
 22
   7.700000
 32
   0.320000
 13
   2.510000
 23
   7.700000
 33
   0.320000
 62
252
  0
3DFACE
  8
CATTEXP
 10
   3.250000
 20
   6.120000
 30
   2.400000
 11
   3.390000
 21
   6.120000
 31
   2.000000
 12
   3.390000
 22
   6.120000
 32
   0.000000
 13
   3.390000
 23
   6.120000
 33
   0.000000
 62
 40
  0
3DFACE
  8
CATTEXP
 10
   4.170000
 20
   6.120000
 30
   2.000000
 11
   3.390000
 21
   6.120000
 31
   2.000000
 12
   3.250000
 22
   6.120000
 32
   2.400000
 13
   3.250000
 23
   6.120000
 33
   2.400000
 62
 40
  0
3DFACE
  8
CATTEXP
 10
   4.450000
 20
   6.120000
 30
   2.400000
 11
   4.170000
 21
   6.120000
 31
   2.000000
 12
   3.250000
 22
   6.120000
 32
   2.400000
 13
   3.250000
 23
   6.120000
 33
   2.400000
 62
 40
  0
3DFACE
  8
CATTEXP
 10
   4.170000
 20
   6.120000
 30
   0.000000
 11
   4.170000
 21
   6.120000
 31
   2.000000
 12
   4.450000
 22
   6.120000
 32
   2.400000
 13
   4.450000
 23
   6.120000
 33
   2.400000
 62
 40
  0
3DFACE
  8
CATTEXP
 10
   4.450000
 20
   6.120000
 30
   0.000000
 11
   4.170000
 21
   6.120000
 31
   0.000000
 12
   4.450000
 22
   6.120000
 32
   2.400000
 13
   4.450000
 23
   6.120000
 33
   2.400000
 62
 40
  0
3DFACE
  8
CATTEXP
 10
   3.250000
 20
   6.120000
 30
   0.000000
 11
   3.250000
 21
   6.120000
 31
   2.400000
 12
   3.390000
 22
   6.120000
 32
   0.000000
 13
   3.390000
 23
   6.120000
 33
   0.000000
 62
 40
  0
3DFACE
  8
CATTEXP
 10
   0.280000
 20
   1.530000
 30
   0.000000
 11
   0.280000
 21
   4.970000
 31
   0.000000
 12
   0.280000
 22
   4.970000
 32
   0.800000
 13
   0.280000
 23
   1.530000
 33
   0.800000
 62
  5
  0
3DFACE
  8
CATTEXP
 10
   2.630000
 20
   0.850000
 30
   0.000000
 11
   3.770000
 21
   0.850000
 31
   0.000000
 12
   3.770000
 22
   0.850000
 32
   2.400000
 13
   3.770000
 23
   0.850000
 33
   2.400000
 62
 72
  0
3DFACE
  8
CATTEXP
 10
   2.630000
 20
   0.850000
 30
   2.400000
 11
   2.630000
 21
   0.850000
 31
   0.000000
 12
   3.770000
 22
   0.850000
 32
   2.400000
 13
   3.770000
 23
   0.850000
 33
   2.400000
 62
 72
  0
3DFACE
  8
CATTEXP
 10
   3.620000
 20
   0.850000
 30
   1.410000
 11
   3.620000
 21
   0.850000
 31
   1.960000
 12
   2.820000
 22
   0.850000
 32
   1.960000
 13
   2.820000
 23
   0.850000
 33
   1.410000
 62
 72
  0
3DFACE
  8
CATTEXP
 10
   2.630000
 20
   0.850000
 30
   0.000000
 11
   3.770000
 21
   0.850000
 31
   0.000000
 12
   3.770000
 22
   0.850000
 32
   2.400000
 13
   3.770000
 23
   0.850000
 33
   2.400000
 62
 40
  0
3DFACE
  8
CATTEXP
 10
   2.630000
 20
   0.850000
 30
   2.400000
 11
   2.630000
 21
   0.850000
 31
   0.000000
 12
   3.770000
 22
   0.850000
 32
   2.400000
 13
   3.770000
 23
   0.850000
 33
   2.400000
 62
 40
  0
3DFACE
  8
CATTEXP
 10
   7.360000
 20
   5.290000
 30
   2.400000
 11
   5.570000
 21
   5.290000
 31
   2.400000
 12
   5.570000
 22
   5.290000
 32
   1.920000
 13
   5.570000
 23
   5.290000
 33
   1.920000
 62
151
  0
3DFACE
  8
CATTEXP
 10
   5.930000
 20
   5.290000
 30
   1.920000
 11
   7.360000
 21
   5.290000
 31
   2.400000
 12
   5.570000
 22
   5.290000
 32
   1.920000
 13
   5.570000
 23
   5.290000
 33
   1.920000
 62
151
  0
3DFACE
  8
CATTEXP
 10
   7.360000
 20
   5.290000
 30
   0.890000
 11
   7.360000
 21
   5.290000
 31
   2.400000
 12
   5.930000
 22
   5.290000
 32
   1.920000
 13
   5.930000
 23
   5.290000
 33
   1.920000
 62
151
  0
3DFACE
  8
CATTEXP
 10
   5.930000
 20
   5.290000
 30
   0.890000
 11
   7.360000
 21
   5.290000
 31
   0.890000
 12
   5.930000
 22
   5.290000
 32
   1.920000
 13
   5.930000
 23
   5.290000
 33
   1.920000
 62
151
  0
3DFACE
  8
CATTEXP
 10
   7.010000
 20
   5.290000
 30
   1.280000
 11
   7.010000
 21
   5.290000
 31
   1.880000
 12
   5.980000
 22
   5.290000
 32
   1.880000
 13
   5.980000
 23
   5.290000
 33
   1.280000
 62
151
  0
3DFACE
  8
CATTEXP
 10
   7.360000
 20
   5.290000
 30
   2.400000
 11
   5.570000
 21
   5.290000
 31
   2.400000
 12
   5.570000
 22
   5.290000
 32
   1.920000
 13
   5.570000
 23
   5.290000
 33
   1.920000
 62
254
  0
3DFACE
  8
CATTEXP
 10
   5.930000
 20
   5.290000
 30
   1.920000
 11
   7.360000
 21
   5.290000
 31
   2.400000
 12
   5.570000
 22
   5.290000
 32
   1.920000
 13
   5.570000
 23
   5.290000
 33
   1.920000
 62
254
  0
3DFACE
  8
CATTEXP
 10
   7.360000
 20
   5.290000
 30
   0.890000
 11
   7.360000
 21
   5.290000
 31
   2.400000
 12
   5.930000
 22
   5.290000
 32
   1.920000
 13
   5.930000
 23
   5.290000
 33
   1.920000
 62
254
  0
3DFACE
  8
CATTEXP
 10
   5.930000
 20
   5.290000
 30
   0.890000
 11
   7.360000
 21
   5.290000
 31
   0.890000
 12
   5.930000
 22
   5.290000
 32
   1.920000
 13
   5.930000
 23
   5.290000
 33
   1.920000
 62
254
  0
3DFACE
  8
CATTEXP
 10
   4.260000
 20
   6.310000
 30
   2.400000
 11
   4.170000
 21
   6.310000
 31
   2.000000
 12
   4.170000
 22
   6.310000
 32
   0.000000
 13
   4.170000
 23
   6.310000
 33
   0.000000
 62
254
  0
3DFACE
  8
CATTEXP
 10
   3.390000
 20
   6.310000
 30
   2.000000
 11
   4.170000
 21
   6.310000
 31
   2.000000
 12
   4.260000
 22
   6.310000
 32
   2.400000
 13
   4.260000
 23
   6.310000
 33
   2.400000
 62
254
  0
3DFACE
  8
CATTEXP
 10
   3.250000
 20
   6.310000
 30
   2.400000
 11
   3.390000
 21
   6.310000
 31
   2.000000
 12
   4.260000
 22
   6.310000
 32
   2.400000
 13
   4.260000
 23
   6.310000
 33
   2.400000
 62
254
  0
3DFACE
  8
CATTEXP
 10
   3.390000
 20
   6.310000
 30
   0.000000
 11
   3.390000
 21
   6.310000
 31
   2.000000
 12
   3.250000
 22
   6.310000
 32
   2.400000
 13
   3.250000
 23
   6.310000
 33
   2.400000
 62
254
  0
3DFACE
  8
CATTEXP
 10
   3.250000
 20
   6.310000
 30
   0.000000
 11
   3.390000
 21
   6.310000
 31
   0.000000
 12
   3.250000
 22
   6.310000
 32
   2.400000
 13
   3.250000
 23
   6.310000
 33
   2.400000
 62
254
  0
3DFACE
  8
CATTEXP
 10
   4.260000
 20
   6.310000
 30
   0.000000
 11
   4.260000
 21
   6.310000
 31
   2.400000
 12
   4.170000
 22
   6.310000
 32
   0.000000
 13
   4.170000
 23
   6.310000
 33
   0.000000
 62
254
  0
3DFACE
  8
CATTEXP
 10
   4.190000
 20
   5.120000
 30
   0.000000
 11
   4.190000
 21
   5.290000
 31
   0.000000
 12
   4.200000
 22
   5.290000
 32
   2.000000
 13
   4.200000
 23
   5.120000
 33
   2.000000
 62
 44
  0
3DFACE
  8
CATTEXP
 10
   2.630000
 20
   0.850000
 30
   0.000000
 11
   2.630000
 21
   0.850000
 31
   2.400000
 12
   2.630000
 22
   0.000000
 32
   2.400000
 13
   2.630000
 23
   0.000000
 33
   2.400000
 62
 40
  0
3DFACE
  8
CATTEXP
 10
   2.630000
 20
   0.000000
 30
   0.000000
 11
   2.630000
 21
   0.850000
 31
   0.000000
 12
   2.630000
 22
   0.000000
 32
   2.400000
 13
   2.630000
 23
   0.000000
 33
   2.400000
 62
 40
  0
3DFACE
  8
CATTEXP
 10
   3.770000
 20
   0.850000
 30
   2.400000
 11
   3.770000
 21
   0.850000
 31
   0.000000
 12
   3.770000
 22
   0.000000
 32
   0.000000
 13
   3.770000
 23
   0.000000
 33
   0.000000
 62
 40
  0
3DFACE
  8
CATTEXP
 10
   3.770000
 20
   0.000000
 30
   2.400000
 11
   3.770000
 21
   0.850000
 31
   2.400000
 12
   3.770000
 22
   0.000000
 32
   0.000000
 13
   3.770000
 23
   0.000000
 33
   0.000000
 62
 40
  0
3DFACE
  8
CATTEXP
 10
   6.760000
 20
   5.120000
 30
   1.730000
 11
   7.360000
 21
   5.120000
 31
   1.730000
 12
   7.360000
 22
   5.120000
 32
   0.960000
 13
   7.360000
 23
   5.120000
 33
   0.960000
 62
254
  0
3DFACE
  8
CATTEXP
 10
   5.170000
 20
   5.120000
 30
   1.870000
 11
   6.760000
 21
   5.120000
 31
   1.730000
 12
   7.360000
 22
   5.120000
 32
   0.960000
 13
   7.360000
 23
   5.120000
 33
   0.960000
 62
254
  0
3DFACE
  8
CATTEXP
 10
   6.760000
 20
   5.120000
 30
   1.870000
 11
   6.760000
 21
   5.120000
 31
   1.730000
 12
   5.170000
 22
   5.120000
 32
   1.870000
 13
   5.170000
 23
   5.120000
 33
   1.870000
 62
254
  0
3DFACE
  8
CATTEXP
 10
   5.170000
 20
   5.120000
 30
   0.960000
 11
   5.170000
 21
   5.120000
 31
   1.870000
 12
   7.360000
 22
   5.120000
 32
   0.960000
 13
   7.360000
 23
   5.120000
 33
   0.960000
 62
254
  0
3DFACE
  8
CATTEXP
 10
   3.250000
 20
   5.290000
 30
   2.400000
 11
   3.250000
 21
   5.310000
 31
   2.000000
 12
   3.250000
 22
   5.310000
 32
   0.000000
 13
   3.250000
 23
   5.310000
 33
   0.000000
 62
 40
  0
3DFACE
  8
CATTEXP
 10
   3.250000
 20
   6.090000
 30
   2.000000
 11
   3.250000
 21
   5.310000
 31
   2.000000
 12
   3.250000
 22
   5.290000
 32
   2.400000
 13
   3.250000
 23
   5.290000
 33
   2.400000
 62
 40
  0
3DFACE
  8
CATTEXP
 10
   3.250000
 20
   6.120000
 30
   2.400000
 11
   3.250000
 21
   6.090000
 31
   2.000000
 12
   3.250000
 22
   5.290000
 32
   2.400000
 13
   3.250000
 23
   5.290000
 33
   2.400000
 62
 40
  0
3DFACE
  8
CATTEXP
 10
   3.250000
 20
   6.090000
 30
   0.000000
 11
   3.250000
 21
   6.090000
 31
   2.000000
 12
   3.250000
 22
   6.120000
 32
   2.400000
 13
   3.250000
 23
   6.120000
 33
   2.400000
 62
 40
  0
3DFACE
  8
CATTEXP
 10
   3.250000
 20
   6.120000
 30
   0.000000
 11
   3.250000
 21
   6.090000
 31
   0.000000
 12
   3.250000
 22
   6.120000
 32
   2.400000
 13
   3.250000
 23
   6.120000
 33
   2.400000
 62
 40
  0
3DFACE
  8
CATTEXP
 10
   3.250000
 20
   5.290000
 30
   0.000000
 11
   3.250000
 21
   5.290000
 31
   2.400000
 12
   3.250000
 22
   5.310000
 32
   0.000000
 13
   3.250000
 23
   5.310000
 33
   0.000000
 62
 40
  0
3DFACE
  8
CATTEXP
 10
   5.570000
 20
   6.750000
 30
   0.000000
 11
   5.570000
 21
   6.750000
 31
   2.000000
 12
   6.430000
 22
   6.750000
 32
   2.000000
 13
   6.430000
 23
   6.750000
 33
   0.000000
 62
253
  0
3DFACE
  8
CATTEXP
 10
   6.430000
 20
   6.750000
 30
   0.000000
 11
   6.430000
 21
   6.750000
 31
   2.000000
 12
   5.570000
 22
   6.750000
 32
   2.000000
 13
   5.570000
 23
   6.750000
 33
   0.000000
 62
253
  0
3DFACE
  8
CATTEXP
 10
   0.280000
 20
   4.970000
 30
   0.000000
 11
   2.410000
 21
   4.970000
 31
   0.000000
 12
   2.410000
 22
   4.970000
 32
   0.800000
 13
   0.280000
 23
   4.970000
 33
   0.800000
 62
  5
  0
3DFACE
  8
CATTEXP
 10
   0.870000
 20
   5.760000
 30
   1.930000
 11
   0.000000
 21
   5.760000
 31
   1.930000
 12
   0.000000
 22
   5.760000
 32
   0.000000
 13
   0.870000
 23
   5.760000
 33
   0.000000
 62
 44
  0
3DFACE
  8
CATTEXP
 10
   0.230000
 20
   0.890000
 30
   0.800000
 11
   0.230000
 21
   0.120000
 31
   0.800000
 12
   2.410000
 22
   0.120000
 32
   0.800000
 13
   2.410000
 23
   0.890000
 33
   0.800000
 62
 44
  0
3DFACE
  8
CATTEXP
 10
   2.410000
 20
   0.890000
 30
   0.800000
 11
   2.410000
 21
   0.120000
 31
   0.800000
 12
   0.230000
 22
   0.120000
 32
   0.800000
 13
   0.230000
 23
   0.890000
 33
   0.800000
 62
 44
  0
3DFACE
  8
CATTEXP
 10
   4.530000
 20
   5.120000
 30
   0.000000
 11
   4.530000
 21
   5.120000
 31
   2.400000
 12
   4.530000
 22
   4.480000
 32
   2.400000
 13
   4.530000
 23
   4.480000
 33
   0.000000
 62
 44
  0
3DFACE
  8
CATTEXP
 10
   3.390000
 20
   7.040000
 30
   2.000000
 11
   3.390000
 21
   7.040000
 31
   0.000000
 12
   3.390000
 22
   6.310000
 32
   0.000000
 13
   3.390000
 23
   6.310000
 33
   2.000000
 62
253
  0
3DFACE
  8
CATTEXP
 10
   3.390000
 20
   6.310000
 30
   2.000000
 11
   3.390000
 21
   6.310000
 31
   0.000000
 12
   3.390000
 22
   7.040000
 32
   0.000000
 13
   3.390000
 23
   7.040000
 33
   2.000000
 62
253
  0
3DFACE
  8
CATTEXP
 10
   1.230000
 20
   1.530000
 30
   0.000000
 11
   1.230000
 21
   1.530000
 31
   0.590000
 12
   1.230000
 22
   1.770000
 32
   0.590000
 13
   1.230000
 23
   1.770000
 33
   0.590000
 62
  5
  0
3DFACE
  8
CATTEXP
 10
   1.230000
 20
   1.770000
 30
   0.370000
 11
   1.230000
 21
   1.530000
 31
   0.000000
 12
   1.230000
 22
   1.770000
 32
   0.590000
 13
   1.230000
 23
   1.770000
 33
   0.590000
 62
  5
  0
3DFACE
  8
CATTEXP
 10
   1.230000
 20
   3.990000
 30
   0.000000
 11
   1.230000
 21
   1.530000
 31
   0.000000
 12
   1.230000
 22
   1.770000
 32
   0.370000
 13
   1.230000
 23
   1.770000
 33
   0.370000
 62
  5
  0
3DFACE
  8
CATTEXP
 10
   1.230000
 20
   3.990000
 30
   0.370000
 11
   1.230000
 21
   3.990000
 31
   0.000000
 12
   1.230000
 22
   1.770000
 32
   0.370000
 13
   1.230000
 23
   1.770000
 33
   0.370000
 62
  5
  0
3DFACE
  8
CATTEXP
 10
   0.500000
 20
   1.530000
 30
   0.590000
 11
   0.500000
 21
   1.530000
 31
   0.800000
 12
   0.500000
 22
   4.750000
 32
   0.800000
 13
   0.500000
 23
   4.750000
 33
   0.800000
 62
  5
  0
3DFACE
  8
CATTEXP
 10
   0.500000
 20
   1.770000
 30
   0.590000
 11
   0.500000
 21
   1.530000
 31
   0.590000
 12
   0.500000
 22
   4.750000
 32
   0.800000
 13
   0.500000
 23
   4.750000
 33
   0.800000
 62
  5
  0
3DFACE
  8
CATTEXP
 10
   0.500000
 20
   1.770000
 30
   0.370000
 11
   0.500000
 21
   1.770000
 31
   0.590000
 12
   0.500000
 22
   4.750000
 32
   0.800000
 13
   0.500000
 23
   4.750000
 33
   0.800000
 62
  5
  0
3DFACE
  8
CATTEXP
 10
   0.500000
 20
   4.750000
 30
   0.370000
 11
   0.500000
 21
   1.770000
 31
   0.370000
 12
   0.500000
 22
   4.750000
 32
   0.800000
 13
   0.500000
 23
   4.750000
 33
   0.800000
 62
  5
  0
3DFACE
  8
CATTEXP
 10
   5.040000
 20
   2.600000
 30
   0.750000
 11
   6.570000
 21
   2.600000
 31
   0.750000
 12
   6.570000
 22
   3.470000
 32
   0.750000
 13
   5.040000
 23
   3.470000
 33
   0.750000
 62
 44
  0
3DFACE
  8
CATTEXP
 10
   5.040000
 20
   3.470000
 30
   0.750000
 11
   6.570000
 21
   3.470000
 31
   0.750000
 12
   6.570000
 22
   2.600000
 32
   0.750000
 13
   5.040000
 23
   2.600000
 33
   0.750000
 62
 44
  0
3DFACE
  8
CATTEXP
 10
   5.930000
 20
   5.860000
 30
   0.890000
 11
   5.930000
 21
   5.860000
 31
   0.000000
 12
   7.360000
 22
   5.860000
 32
   0.000000
 13
   7.360000
 23
   5.860000
 33
   0.000000
 62
 44
  0
3DFACE
  8
CATTEXP
 10
   7.360000
 20
   5.860000
 30
   0.890000
 11
   5.930000
 21
   5.860000
 31
   0.890000
 12
   7.360000
 22
   5.860000
 32
   0.000000
 13
   7.360000
 23
   5.860000
 33
   0.000000
 62
 44
  0
3DFACE
  8
CATTEXP
 10
   5.170000
 20
   4.780000
 30
   2.400000
 11
   7.360000
 21
   4.780000
 31
   2.400000
 12
   7.360000
 22
   4.780000
 32
   1.870000
 13
   7.360000
 23
   4.780000
 33
   1.870000
 62
 44
  0
3DFACE
  8
CATTEXP
 10
   5.170000
 20
   4.780000
 30
   1.870000
 11
   5.170000
 21
   4.780000
 31
   2.400000
 12
   7.360000
 22
   4.780000
 32
   1.870000
 13
   7.360000
 23
   4.780000
 33
   1.870000
 62
 44
  0
3DFACE
  8
CATTEXP
 10
   7.360000
 20
   4.480000
 30
   0.960000
 11
   5.600000
 21
   4.480000
 31
   0.960000
 12
   5.600000
 22
   5.120000
 32
   0.960000
 13
   5.600000
 23
   5.120000
 33
   0.960000
 62
151
  0
3DFACE
  8
CATTEXP
 10
   7.360000
 20
   5.120000
 30
   0.960000
 11
   7.360000
 21
   4.480000
 31
   0.960000
 12
   5.600000
 22
   5.120000
 32
   0.960000
 13
   5.600000
 23
   5.120000
 33
   0.960000
 62
151
  0
3DFACE
  8
CATTEXP
 10
   6.790000
 20
   5.020000
 30
   0.960000
 11
   7.330000
 21
   5.020000
 31
   0.960000
 12
   7.330000
 22
   4.550000
 32
   0.960000
 13
   6.790000
 23
   4.550000
 33
   0.960000
 62
151
  0
3DFACE
  8
CATTEXP
 10
   6.500000
 20
   4.600000
 30
   0.960000
 11
   5.630000
 21
   4.600000
 31
   0.960000
 12
   5.630000
 22
   4.970000
 32
   0.960000
 13
   6.500000
 23
   4.970000
 33
   0.960000
 62
141
  0
3DFACE
  8
CATTEXP
 10
   7.360000
 20
   4.480000
 30
   0.960000
 11
   5.600000
 21
   4.480000
 31
   0.960000
 12
   5.600000
 22
   5.120000
 32
   0.960000
 13
   5.600000
 23
   5.120000
 33
   0.960000
 62
 44
  0
3DFACE
  8
CATTEXP
 10
   7.360000
 20
   5.120000
 30
   0.960000
 11
   7.360000
 21
   4.480000
 31
   0.960000
 12
   5.600000
 22
   5.120000
 32
   0.960000
 13
   5.600000
 23
   5.120000
 33
   0.960000
 62
 44
  0
3DFACE
  8
CATTEXP
 10
   7.360000
 20
   6.830000
 30
   0.540000
 11
   5.570000
 21
   6.830000
 31
   0.540000
 12
   5.570000
 22
   6.830000
 32
   0.000000
 13
   5.570000
 23
   6.830000
 33
   0.000000
 62
254
  0
3DFACE
  8
CATTEXP
 10
   7.360000
 20
   6.830000
 30
   0.000000
 11
   7.360000
 21
   6.830000
 31
   0.540000
 12
   5.570000
 22
   6.830000
 32
   0.000000
 13
   5.570000
 23
   6.830000
 33
   0.000000
 62
254
  0
3DFACE
  8
CATTEXP
 10
   5.570000
 20
   6.830000
 30
   0.540000
 11
   7.360000
 21
   6.830000
 31
   0.540000
 12
   7.360000
 22
   6.830000
 32
   0.000000
 13
   7.360000
 23
   6.830000
 33
   0.000000
 62
254
  0
3DFACE
  8
CATTEXP
 10
   5.570000
 20
   6.830000
 30
   0.000000
 11
   5.570000
 21
   6.830000
 31
   0.540000
 12
   7.360000
 22
   6.830000
 32
   0.000000
 13
   7.360000
 23
   6.830000
 33
   0.000000
 62
254
  0
3DFACE
  8
CATTEXP
 10
   5.170000
 20
   4.780000
 30
   1.870000
 11
   5.170000
 21
   5.120000
 31
   1.870000
 12
   5.170000
 22
   5.120000
 32
   0.960000
 13
   5.170000
 23
   5.120000
 33
   0.960000
 62
 44
  0
3DFACE
  8
CATTEXP
 10
   5.170000
 20
   4.480000
 30
   2.400000
 11
   5.170000
 21
   4.780000
 31
   1.870000
 12
   5.170000
 22
   5.120000
 32
   0.960000
 13
   5.170000
 23
   5.120000
 33
   0.960000
 62
 44
  0
3DFACE
  8
CATTEXP
 10
   5.170000
 20
   4.780000
 30
   2.400000
 11
   5.170000
 21
   4.780000
 31
   1.870000
 12
   5.170000
 22
   4.480000
 32
   2.400000
 13
   5.170000
 23
   4.480000
 33
   2.400000
 62
 44
  0
3DFACE
  8
CATTEXP
 10
   5.170000
 20
   4.480000
 30
   0.960000
 11
   5.170000
 21
   4.480000
 31
   2.400000
 12
   5.170000
 22
   5.120000
 32
   0.960000
 13
   5.170000
 23
   5.120000
 33
   0.960000
 62
 44
  0
3DFACE
  8
CATTEXP
 10
   0.870000
 20
   5.290000
 30
   1.930000
 11
   0.870000
 21
   5.760000
 31
   1.930000
 12
   0.870000
 22
   5.760000
 32
   0.000000
 13
   0.870000
 23
   5.290000
 33
   0.000000
 62
 44
  0
3DFACE
  8
CATTEXP
 10
   0.500000
 20
   4.750000
 30
   0.800000
 11
   2.410000
 21
   4.750000
 31
   0.800000
 12
   2.410000
 22
   4.750000
 32
   0.370000
 13
   0.500000
 23
   4.750000
 33
   0.370000
 62
  5
  0
3DFACE
  8
CATTEXP
 10
   1.620000
 20
   3.490000
 30
   0.480000
 11
   2.410000
 21
   3.490000
 31
   0.480000
 12
   2.410000
 22
   2.480000
 32
   0.480000
 13
   1.620000
 23
   2.480000
 33
   0.480000
 62
 44
  0
3DFACE
  8
CATTEXP
 10
   1.620000
 20
   2.480000
 30
   0.480000
 11
   2.410000
 21
   2.480000
 31
   0.480000
 12
   2.410000
 22
   3.490000
 32
   0.480000
 13
   1.620000
 23
   3.490000
 33
   0.480000
 62
 44
  0
3DFACE
  8
CATTEXP
 10
   0.280000
 20
   1.530000
 30
   0.000000
 11
   0.280000
 21
   1.530000
 31
   0.800000
 12
   0.500000
 22
   1.530000
 32
   0.800000
 13
   0.500000
 23
   1.530000
 33
   0.800000
 62
  5
  0
3DFACE
  8
CATTEXP
 10
   0.500000
 20
   1.530000
 30
   0.590000
 11
   0.280000
 21
   1.530000
 31
   0.000000
 12
   0.500000
 22
   1.530000
 32
   0.800000
 13
   0.500000
 23
   1.530000
 33
   0.800000
 62
  5
  0
3DFACE
  8
CATTEXP
 10
   1.230000
 20
   1.530000
 30
   0.000000
 11
   0.280000
 21
   1.530000
 31
   0.000000
 12
   0.500000
 22
   1.530000
 32
   0.590000
 13
   0.500000
 23
   1.530000
 33
   0.590000
 62
  5
  0
3DFACE
  8
CATTEXP
 10
   1.230000
 20
   1.530000
 30
   0.590000
 11
   1.230000
 21
   1.530000
 31
   0.000000
 12
   0.500000
 22
   1.530000
 32
   0.590000
 13
   0.500000
 23
   1.530000
 33
   0.590000
 62
  5
  0
3DFACE
  8
CATTEXP
 10
   7.360000
 20
   6.830000
 30
   2.400000
 11
   7.010000
 21
   6.830000
 31
   2.400000
 12
   7.010000
 22
   6.830000
 32
   0.540000
 13
   7.360000
 23
   6.830000
 33
   0.540000
 62
243
  0
3DFACE
  8
CATTEXP
 10
   7.360000
 20
   6.830000
 30
   0.540000
 11
   7.010000
 21
   6.830000
 31
   0.540000
 12
   7.010000
 22
   6.830000
 32
   2.400000
 13
   7.360000
 23
   6.830000
 33
   2.400000
 62
243
  0
3DFACE
  8
CATTEXP
 10
   5.930000
 20
   5.860000
 30
   0.890000
 11
   7.060000
 21
   5.860000
 31
   0.890000
 12
   7.060000
 22
   5.290000
 32
   0.890000
 13
   5.930000
 23
   5.290000
 33
   0.890000
 62
254
  0
3DFACE
  8
CATTEXP
 10
   0.570000
 20
   6.180000
 30
   0.320000
 11
   2.510000
 21
   6.180000
 31
   0.320000
 12
   2.510000
 22
   6.180000
 32
   0.000000
 13
   0.570000
 23
   6.180000
 33
   0.000000
 62
252
  0
3DFACE
  8
CATTEXP
 10
   5.170000
 20
   4.780000
 30
   1.870000
 11
   6.760000
 21
   4.780000
 31
   1.870000
 12
   6.760000
 22
   5.120000
 32
   1.870000
 13
   5.170000
 23
   5.120000
 33
   1.870000
 62
 44
  0
3DFACE
  8
CATTEXP
 10
   0.570000
 20
   7.700000
 30
   0.320000
 11
   0.570000
 21
   6.180000
 31
   0.320000
 12
   0.570000
 22
   6.180000
 32
   0.000000
 13
   0.570000
 23
   7.700000
 33
   0.000000
 62
252
  0
3DFACE
  8
CATTEXP
 10
   2.510000
 20
   6.180000
 30
   0.320000
 11
   2.510000
 21
   7.700000
 31
   0.320000
 12
   2.510000
 22
   7.700000
 32
   0.000000
 13
   2.510000
 23
   6.180000
 33
   0.000000
 62
252
  0
3DFACE
  8
CATTEXP
 10
   1.000000
 20
   1.150000
 30
   0.490000
 11
   1.630000
 21
   1.150000
 31
   0.490000
 12
   1.630000
 22
   1.150000
 32
   1.210000
 13
   1.630000
 23
   1.150000
 33
   1.210000
 62
170
  0
3DFACE
  8
CATTEXP
 10
   1.000000
 20
   1.150000
 30
   1.210000
 11
   1.000000
 21
   1.150000
 31
   0.490000
 12
   1.630000
 22
   1.150000
 32
   1.210000
 13
   1.630000
 23
   1.150000
 33
   1.210000
 62
170
  0
3DFACE
  8
CATTEXP
 10
   1.000000
 20
   1.150000
 30
   0.490000
 11
   1.000000
 21
   1.150000
 31
   1.210000
 12
   1.630000
 22
   1.150000
 32
   1.210000
 13
   1.630000
 23
   1.150000
 33
   1.210000
 62
170
  0
3DFACE
  8
CATTEXP
 10
   1.630000
 20
   1.150000
 30
   0.490000
 11
   1.000000
 21
   1.150000
 31
   0.490000
 12
   1.630000
 22
   1.150000
 32
   1.210000
 13
   1.630000
 23
   1.150000
 33
   1.210000
 62
170
  0
3DFACE
  8
CATTEXP
 10
   1.230000
 20
   3.990000
 30
   0.370000
 11
   2.410000
 21
   3.990000
 31
   0.370000
 12
   2.410000
 22
   3.990000
 32
   0.000000
 13
   1.230000
 23
   3.990000
 33
   0.000000
 62
  5
  0
3DFACE
  8
CATTEXP
 10
   4.810000
 20
   2.690000
 30
   0.490000
 11
   5.270000
 21
   2.810000
 31
   0.490000
 12
   5.120000
 22
   3.380000
 32
   0.490000
 13
   5.120000
 23
   3.380000
 33
   0.490000
 62
 34
  0
3DFACE
  8
CATTEXP
 10
   4.650000
 20
   3.250000
 30
   0.490000
 11
   4.810000
 21
   2.690000
 31
   0.490000
 12
   5.120000
 22
   3.380000
 32
   0.490000
 13
   5.120000
 23
   3.380000
 33
   0.490000
 62
 34
  0
3DFACE
  8
CATTEXP
 10
   4.830000
 20
   3.300000
 30
   0.490000
 11
   4.650000
 21
   3.250000
 31
   0.490000
 12
   5.120000
 22
   3.380000
 32
   0.490000
 13
   5.120000
 23
   3.380000
 33
   0.490000
 62
 34
  0
3DFACE
  8
CATTEXP
 10
   4.810000
 20
   2.690000
 30
   0.490000
 11
   4.650000
 21
   3.250000
 31
   0.490000
 12
   4.830000
 22
   3.300000
 32
   0.490000
 13
   4.830000
 23
   3.300000
 33
   0.490000
 62
 34
  0
3DFACE
  8
CATTEXP
 10
   5.270000
 20
   2.810000
 30
   0.490000
 11
   4.810000
 21
   2.690000
 31
   0.490000
 12
   4.830000
 22
   3.300000
 32
   0.490000
 13
   4.830000
 23
   3.300000
 33
   0.490000
 62
 34
  0
3DFACE
  8
CATTEXP
 10
   5.120000
 20
   3.380000
 30
   0.490000
 11
   5.270000
 21
   2.810000
 31
   0.490000
 12
   4.830000
 22
   3.300000
 32
   0.490000
 13
   4.830000
 23
   3.300000
 33
   0.490000
 62
 34
  0
3DFACE
  8
CATTEXP
 10
   0.870000
 20
   5.760000
 30
   1.930000
 11
   0.870000
 21
   5.290000
 31
   1.930000
 12
   0.000000
 22
   5.290000
 32
   1.930000
 13
   0.000000
 23
   5.760000
 33
   1.930000
 62
 44
  0
3DFACE
  8
CATTEXP
 10
   4.170000
 20
   6.120000
 30
   0.000000
 11
   4.170000
 21
   6.310000
 31
   0.000000
 12
   4.170000
 22
   6.310000
 32
   2.000000
 13
   4.170000
 23
   6.120000
 33
   2.000000
 62
 44
  0
3DFACE
  8
CATTEXP
 10
   3.390000
 20
   6.310000
 30
   2.000000
 11
   3.390000
 21
   6.310000
 31
   0.000000
 12
   3.390000
 22
   6.120000
 32
   0.000000
 13
   3.390000
 23
   6.120000
 33
   2.000000
 62
 44
  0
3DFACE
  8
CATTEXP
 10
   7.080000
 20
   3.330000
 30
   0.490000
 11
   6.570000
 21
   3.380000
 31
   0.490000
 12
   6.510000
 22
   2.790000
 32
   0.490000
 13
   6.510000
 23
   2.790000
 33
   0.490000
 62
 34
  0
3DFACE
  8
CATTEXP
 10
   7.030000
 20
   2.850000
 30
   0.490000
 11
   7.080000
 21
   3.330000
 31
   0.490000
 12
   6.510000
 22
   2.790000
 32
   0.490000
 13
   6.510000
 23
   2.790000
 33
   0.490000
 62
 34
  0
3DFACE
  8
CATTEXP
 10
   7.020000
 20
   2.740000
 30
   0.490000
 11
   7.030000
 21
   2.850000
 31
   0.490000
 12
   6.510000
 22
   2.790000
 32
   0.490000
 13
   6.510000
 23
   2.790000
 33
   0.490000
 62
 34
  0
3DFACE
  8
CATTEXP
 10
   6.570000
 20
   3.380000
 30
   0.490000
 11
   7.030000
 21
   2.850000
 31
   0.490000
 12
   7.020000
 22
   2.740000
 32
   0.490000
 13
   7.020000
 23
   2.740000
 33
   0.490000
 62
 34
  0
3DFACE
  8
CATTEXP
 10
   7.080000
 20
   3.330000
 30
   0.490000
 11
   7.030000
 21
   2.850000
 31
   0.490000
 12
   6.570000
 22
   3.380000
 32
   0.490000
 13
   6.570000
 23
   3.380000
 33
   0.490000
 62
 34
  0
3DFACE
  8
CATTEXP
 10
   6.510000
 20
   2.790000
 30
   0.490000
 11
   6.570000
 21
   3.380000
 31
   0.490000
 12
   7.020000
 22
   2.740000
 32
   0.490000
 13
   7.020000
 23
   2.740000
 33
   0.490000
 62
 34
  0
3DFACE
  8
CATTEXP
 10
   3.400000
 20
   5.120000
 30
   2.000000
 11
   3.400000
 21
   5.290000
 31
   2.000000
 12
   3.400000
 22
   5.290000
 32
   0.000000
 13
   3.400000
 23
   5.120000
 33
   0.000000
 62
 44
  0
3DFACE
  8
CATTEXP
 10
   5.400000
 20
   6.750000
 30
   0.000000
 11
   5.400000
 21
   6.750000
 31
   2.000000
 12
   5.570000
 22
   6.750000
 32
   2.000000
 13
   5.570000
 23
   6.750000
 33
   0.000000
 62
 44
  0
3DFACE
  8
CATTEXP
 10
   5.570000
 20
   5.960000
 30
   0.000000
 11
   5.570000
 21
   5.960000
 31
   2.000000
 12
   5.400000
 22
   5.960000
 32
   2.000000
 13
   5.400000
 23
   5.960000
 33
   0.000000
 62
 44
  0
3DFACE
  8
CATTEXP
 10
   4.020000
 20
   7.060000
 30
   0.480000
 11
   4.020000
 21
   7.700000
 31
   0.480000
 12
   4.020000
 22
   7.700000
 32
   0.000000
 13
   4.020000
 23
   7.060000
 33
   0.000000
 62
254
  0
3DFACE
  8
CATTEXP
 10
   3.560000
 20
   7.700000
 30
   0.480000
 11
   3.560000
 21
   7.060000
 31
   0.480000
 12
   3.560000
 22
   7.060000
 32
   0.000000
 13
   3.560000
 23
   7.700000
 33
   0.000000
 62
254
  0
3DFACE
  8
CATTEXP
 10
   5.570000
 20
   5.860000
 30
   1.920000
 11
   5.570000
 21
   5.860000
 31
   1.390000
 12
   5.570000
 22
   5.290000
 32
   1.390000
 13
   5.570000
 23
   5.290000
 33
   1.920000
 62
 44
  0
3DFACE
  8
CATTEXP
 10
   5.930000
 20
   5.860000
 30
   1.920000
 11
   5.930000
 21
   5.860000
 31
   1.390000
 12
   5.930000
 22
   5.290000
 32
   1.390000
 13
   5.930000
 23
   5.290000
 33
   1.920000
 62
 44
  0
3DFACE
  8
CATTEXP
 10
   5.930000
 20
   5.290000
 30
   1.920000
 11
   5.930000
 21
   5.290000
 31
   1.390000
 12
   5.930000
 22
   5.860000
 32
   1.390000
 13
   5.930000
 23
   5.860000
 33
   1.920000
 62
 44
  0
3DFACE
  8
CATTEXP
 10
   3.250000
 20
   5.310000
 30
   0.000000
 11
   3.250000
 21
   5.310000
 31
   2.000000
 12
   3.100000
 22
   5.310000
 32
   2.000000
 13
   3.100000
 23
   5.310000
 33
   0.000000
 62
 44
  0
3DFACE
  8
CATTEXP
 10
   3.100000
 20
   6.090000
 30
   0.000000
 11
   3.100000
 21
   6.090000
 31
   2.000000
 12
   3.250000
 22
   6.090000
 32
   2.000000
 13
   3.250000
 23
   6.090000
 33
   0.000000
 62
 44
  0
3DFACE
  8
CATTEXP
 10
   6.760000
 20
   4.620000
 30
   1.730000
 11
   7.360000
 21
   4.620000
 31
   1.730000
 12
   7.360000
 22
   5.120000
 32
   1.730000
 13
   7.360000
 23
   5.120000
 33
   1.730000
 62
141
  0
3DFACE
  8
CATTEXP
 10
   6.760000
 20
   5.120000
 30
   1.730000
 11
   6.760000
 21
   4.620000
 31
   1.730000
 12
   7.360000
 22
   5.120000
 32
   1.730000
 13
   7.360000
 23
   5.120000
 33
   1.730000
 62
141
  0
3DFACE
  8
CATTEXP
 10
   1.630000
 20
   1.150000
 30
   0.100000
 11
   1.000000
 21
   1.150000
 31
   0.100000
 12
   1.000000
 22
   0.680000
 32
   0.100000
 13
   1.630000
 23
   0.680000
 33
   0.100000
 62
 34
  0
3DFACE
  8
CATTEXP
 10
   1.630000
 20
   0.680000
 30
   0.490000
 11
   1.000000
 21
   0.680000
 31
   0.490000
 12
   1.000000
 22
   1.150000
 32
   0.490000
 13
   1.630000
 23
   1.150000
 33
   0.490000
 62
170
  0
3DFACE
  8
CATTEXP
 10
   4.020000
 20
   7.060000
 30
   0.480000
 11
   3.560000
 21
   7.060000
 31
   0.480000
 12
   3.560000
 22
   7.700000
 32
   0.480000
 13
   4.020000
 23
   7.700000
 33
   0.480000
 62
254
  0
3DFACE
  8
CATTEXP
 10
   6.370000
 20
   3.630000
 30
   0.490000
 11
   5.820000
 21
   3.590000
 31
   0.490000
 12
   5.860000
 22
   3.130000
 32
   0.490000
 13
   6.400000
 23
   3.170000
 33
   0.490000
 62
 34
  0
3DFACE
  8
CATTEXP
 10
   6.400000
 20
   3.170000
 30
   0.490000
 11
   5.860000
 21
   3.130000
 31
   0.490000
 12
   5.820000
 22
   3.590000
 32
   0.490000
 13
   6.370000
 23
   3.630000
 33
   0.490000
 62
 34
  0
3DFACE
  8
CATTEXP
 10
   5.930000
 20
   5.290000
 30
   0.890000
 11
   5.930000
 21
   5.290000
 31
   1.390000
 12
   5.930000
 22
   5.860000
 32
   1.390000
 13
   5.930000
 23
   5.860000
 33
   0.890000
 62
 44
  0
3DFACE
  8
CATTEXP
 10
   5.930000
 20
   5.860000
 30
   0.890000
 11
   5.930000
 21
   5.860000
 31
   1.390000
 12
   5.930000
 22
   5.290000
 32
   1.390000
 13
   5.930000
 23
   5.290000
 33
   0.890000
 62
 44
  0
3DFACE
  8
CATTEXP
 10
   5.570000
 20
   5.290000
 30
   0.890000
 11
   5.570000
 21
   5.290000
 31
   1.390000
 12
   5.570000
 22
   5.860000
 32
   1.390000
 13
   5.570000
 23
   5.860000
 33
   0.890000
 62
 44
  0
3DFACE
  8
CATTEXP
 10
   5.570000
 20
   5.860000
 30
   0.890000
 11
   5.570000
 21
   5.860000
 31
   0.390000
 12
   5.570000
 22
   5.290000
 32
   0.390000
 13
   5.570000
 23
   5.290000
 33
   0.890000
 62
 44
  0
3DFACE
  8
CATTEXP
 10
   5.930000
 20
   5.860000
 30
   0.390000
 11
   5.930000
 21
   5.860000
 31
   0.890000
 12
   5.930000
 22
   5.290000
 32
   0.890000
 13
   5.930000
 23
   5.290000
 33
   0.390000
 62
 44
  0
3DFACE
  8
CATTEXP
 10
   2.410000
 20
   3.990000
 30
   0.370000
 11
   2.410000
 21
   4.750000
 31
   0.370000
 12
   2.410000
 22
   4.750000
 32
   0.000000
 13
   2.410000
 23
   3.990000
 33
   0.000000
 62
  5
  0
3DFACE
  8
CATTEXP
 10
   5.780000
 20
   3.670000
 30
   0.490000
 11
   5.220000
 21
   3.690000
 31
   0.490000
 12
   5.200000
 22
   3.230000
 32
   0.490000
 13
   5.760000
 23
   3.210000
 33
   0.490000
 62
 34
  0
3DFACE
  8
CATTEXP
 10
   5.760000
 20
   3.210000
 30
   0.490000
 11
   5.200000
 21
   3.230000
 31
   0.490000
 12
   5.220000
 22
   3.690000
 32
   0.490000
 13
   5.780000
 23
   3.670000
 33
   0.490000
 62
 34
  0
3DFACE
  8
CATTEXP
 10
   5.600000
 20
   4.600000
 30
   0.960000
 11
   5.600000
 21
   4.480000
 31
   0.960000
 12
   5.170000
 22
   4.480000
 32
   0.960000
 13
   5.170000
 23
   4.480000
 33
   0.960000
 62
 44
  0
3DFACE
  8
CATTEXP
 10
   5.230000
 20
   4.600000
 30
   0.960000
 11
   5.600000
 21
   4.600000
 31
   0.960000
 12
   5.170000
 22
   4.480000
 32
   0.960000
 13
   5.170000
 23
   4.480000
 33
   0.960000
 62
 44
  0
3DFACE
  8
CATTEXP
 10
   5.230000
 20
   4.970000
 30
   0.960000
 11
   5.230000
 21
   4.600000
 31
   0.960000
 12
   5.170000
 22
   4.480000
 32
   0.960000
 13
   5.170000
 23
   4.480000
 33
   0.960000
 62
 44
  0
3DFACE
  8
CATTEXP
 10
   5.170000
 20
   5.120000
 30
   0.960000
 11
   5.230000
 21
   4.970000
 31
   0.960000
 12
   5.170000
 22
   4.480000
 32
   0.960000
 13
   5.170000
 23
   4.480000
 33
   0.960000
 62
 44
  0
3DFACE
  8
CATTEXP
 10
   5.600000
 20
   4.970000
 30
   0.960000
 11
   5.230000
 21
   4.970000
 31
   0.960000
 12
   5.170000
 22
   5.120000
 32
   0.960000
 13
   5.170000
 23
   5.120000
 33
   0.960000
 62
 44
  0
3DFACE
  8
CATTEXP
 10
   5.600000
 20
   5.120000
 30
   0.960000
 11
   5.600000
 21
   4.970000
 31
   0.960000
 12
   5.170000
 22
   5.120000
 32
   0.960000
 13
   5.170000
 23
   5.120000
 33
   0.960000
 62
 44
  0
3DFACE
  8
CATTEXP
 10
   6.480000
 20
   2.420000
 30
   0.970000
 11
   6.480000
 21
   2.420000
 31
   0.490000
 12
   5.910000
 22
   2.420000
 32
   0.490000
 13
   5.910000
 23
   2.420000
 33
   0.970000
 62
 34
  0
3DFACE
  8
CATTEXP
 10
   5.910000
 20
   2.420000
 30
   0.970000
 11
   5.910000
 21
   2.420000
 31
   0.490000
 12
   6.480000
 22
   2.420000
 32
   0.490000
 13
   6.480000
 23
   2.420000
 33
   0.970000
 62
 34
  0
3DFACE
  8
CATTEXP
 10
   5.280000
 20
   2.380000
 30
   0.490000
 11
   5.840000
 21
   2.360000
 31
   0.490000
 12
   5.850000
 22
   2.810000
 32
   0.490000
 13
   5.300000
 23
   2.830000
 33
   0.490000
 62
 34
  0
3DFACE
  8
CATTEXP
 10
   5.300000
 20
   2.830000
 30
   0.490000
 11
   5.850000
 21
   2.810000
 31
   0.490000
 12
   5.840000
 22
   2.360000
 32
   0.490000
 13
   5.280000
 23
   2.380000
 33
   0.490000
 62
 34
  0
3DFACE
  8
CATTEXP
 10
   5.910000
 20
   2.420000
 30
   0.490000
 11
   6.480000
 21
   2.420000
 31
   0.490000
 12
   6.480000
 22
   2.870000
 32
   0.490000
 13
   5.910000
 23
   2.870000
 33
   0.490000
 62
 34
  0
3DFACE
  8
CATTEXP
 10
   5.910000
 20
   2.870000
 30
   0.490000
 11
   6.480000
 21
   2.870000
 31
   0.490000
 12
   6.480000
 22
   2.420000
 32
   0.490000
 13
   5.910000
 23
   2.420000
 33
   0.490000
 62
 34
  0
3DFACE
  8
CATTEXP
 10
   3.960000
 20
   0.400000
 30
   1.400000
 11
   4.180000
 21
   0.170000
 31
   1.400000
 12
   4.460000
 22
   0.600000
 32
   1.400000
 13
   4.370000
 23
   0.680000
 33
   1.400000
 62
 44
  0
3DFACE
  8
CATTEXP
 10
   4.370000
 20
   0.680000
 30
   1.400000
 11
   4.460000
 21
   0.600000
 31
   1.400000
 12
   4.180000
 22
   0.170000
 32
   1.400000
 13
   3.960000
 23
   0.400000
 33
   1.400000
 62
 44
  0
3DFACE
  8
CATTEXP
 10
   5.300000
 20
   0.410000
 30
   0.600000
 11
   5.080000
 21
   0.180000
 31
   0.600000
 12
   4.800000
 22
   0.600000
 32
   0.600000
 13
   4.880000
 23
   0.680000
 33
   0.600000
 62
 44
  0
3DFACE
  8
CATTEXP
 10
   4.880000
 20
   0.680000
 30
   0.600000
 11
   4.800000
 21
   0.600000
 31
   0.600000
 12
   5.080000
 22
   0.180000
 32
   0.600000
 13
   5.300000
 23
   0.410000
 33
   0.600000
 62
 44
  0
3DFACE
  8
CATTEXP
 10
   3.950000
 20
   1.300000
 30
   2.200000
 11
   4.170000
 21
   1.520000
 31
   2.200000
 12
   4.450000
 22
   1.100000
 32
   2.200000
 13
   4.370000
 23
   1.020000
 33
   2.200000
 62
 44
  0
3DFACE
  8
CATTEXP
 10
   4.370000
 20
   1.020000
 30
   2.200000
 11
   4.450000
 21
   1.100000
 31
   2.200000
 12
   4.170000
 22
   1.520000
 32
   2.200000
 13
   3.950000
 23
   1.300000
 33
   2.200000
 62
 44
  0
3DFACE
  8
CATTEXP
 10
   1.630000
 20
   1.150000
 30
   0.100000
 11
   1.630000
 21
   1.150000
 31
   0.490000
 12
   1.000000
 22
   1.150000
 32
   0.490000
 13
   1.000000
 23
   1.150000
 33
   0.100000
 62
170
  0
3DFACE
  8
CATTEXP
 10
   1.630000
 20
   0.680000
 30
   0.100000
 11
   1.000000
 21
   0.680000
 31
   0.100000
 12
   1.000000
 22
   0.680000
 32
   0.490000
 13
   1.630000
 23
   0.680000
 33
   0.490000
 62
170
  0
3DFACE
  8
CATTEXP
 10
   5.930000
 20
   5.290000
 30
   0.390000
 11
   5.930000
 21
   5.290000
 31
   0.000000
 12
   5.930000
 22
   5.860000
 32
   0.000000
 13
   5.930000
 23
   5.860000
 33
   0.390000
 62
 44
  0
3DFACE
  8
CATTEXP
 10
   5.570000
 20
   5.290000
 30
   0.000000
 11
   5.570000
 21
   5.290000
 31
   0.390000
 12
   5.570000
 22
   5.860000
 32
   0.390000
 13
   5.570000
 23
   5.860000
 33
   0.000000
 62
 44
  0
3DFACE
  8
CATTEXP
 10
   3.560000
 20
   7.060000
 30
   0.480000
 11
   4.020000
 21
   7.060000
 31
   0.480000
 12
   4.020000
 22
   7.060000
 32
   0.000000
 13
   3.560000
 23
   7.060000
 33
   0.000000
 62
254
  0
3DFACE
  8
CATTEXP
 10
   4.470000
 20
   0.060000
 30
   1.200000
 11
   4.180000
 21
   0.170000
 31
   1.200000
 12
   4.460000
 22
   0.600000
 32
   1.200000
 13
   4.570000
 23
   0.550000
 33
   1.200000
 62
 44
  0
3DFACE
  8
CATTEXP
 10
   4.570000
 20
   0.550000
 30
   1.200000
 11
   4.460000
 21
   0.600000
 31
   1.200000
 12
   4.180000
 22
   0.170000
 32
   1.200000
 13
   4.470000
 23
   0.060000
 33
   1.200000
 62
 44
  0
3DFACE
  8
CATTEXP
 10
   3.830000
 20
   0.690000
 30
   1.600000
 11
   3.960000
 21
   0.400000
 31
   1.600000
 12
   4.370000
 22
   0.680000
 32
   1.600000
 13
   4.330000
 23
   0.790000
 33
   1.600000
 62
 44
  0
3DFACE
  8
CATTEXP
 10
   4.330000
 20
   0.790000
 30
   1.600000
 11
   4.370000
 21
   0.680000
 31
   1.600000
 12
   3.960000
 22
   0.400000
 32
   1.600000
 13
   3.830000
 23
   0.690000
 33
   1.600000
 62
 44
  0
3DFACE
  8
CATTEXP
 10
   5.420000
 20
   0.700000
 30
   0.400000
 11
   5.300000
 21
   0.410000
 31
   0.400000
 12
   4.880000
 22
   0.680000
 32
   0.400000
 13
   4.930000
 23
   0.800000
 33
   0.400000
 62
 44
  0
3DFACE
  8
CATTEXP
 10
   4.930000
 20
   0.800000
 30
   0.400000
 11
   4.880000
 21
   0.680000
 31
   0.400000
 12
   5.300000
 22
   0.410000
 32
   0.400000
 13
   5.420000
 23
   0.700000
 33
   0.400000
 62
 44
  0
3DFACE
  8
CATTEXP
 10
   3.830000
 20
   1.000000
 30
   2.000000
 11
   3.950000
 21
   1.300000
 31
   2.000000
 12
   4.370000
 22
   1.020000
 32
   2.000000
 13
   4.330000
 23
   0.910000
 33
   2.000000
 62
 44
  0
3DFACE
  8
CATTEXP
 10
   4.330000
 20
   0.910000
 30
   2.000000
 11
   4.370000
 21
   1.020000
 31
   2.000000
 12
   3.950000
 22
   1.300000
 32
   2.000000
 13
   3.830000
 23
   1.000000
 33
   2.000000
 62
 44
  0
3DFACE
  8
CATTEXP
 10
   5.080000
 20
   0.180000
 30
   0.800000
 11
   4.790000
 21
   0.060000
 31
   0.800000
 12
   4.690000
 22
   0.550000
 32
   0.800000
 13
   4.800000
 23
   0.600000
 33
   0.800000
 62
 44
  0
3DFACE
  8
CATTEXP
 10
   4.800000
 20
   0.600000
 30
   0.800000
 11
   4.690000
 21
   0.550000
 31
   0.800000
 12
   4.790000
 22
   0.060000
 32
   0.800000
 13
   5.080000
 23
   0.180000
 33
   0.800000
 62
 44
  0
3DFACE
  8
CATTEXP
 10
   5.930000
 20
   5.860000
 30
   1.920000
 11
   5.570000
 21
   5.860000
 31
   1.920000
 12
   5.570000
 22
   5.290000
 32
   1.920000
 13
   5.930000
 23
   5.290000
 33
   1.920000
 62
 44
  0
3DFACE
  8
CATTEXP
 10
   5.930000
 20
   5.290000
 30
   1.920000
 11
   5.570000
 21
   5.290000
 31
   1.920000
 12
   5.570000
 22
   5.860000
 32
   1.920000
 13
   5.930000
 23
   5.860000
 33
   1.920000
 62
 44
  0
3DFACE
  8
CATTEXP
 10
   5.570000
 20
   5.290000
 30
   1.390000
 11
   5.930000
 21
   5.290000
 31
   1.390000
 12
   5.930000
 22
   5.860000
 32
   1.390000
 13
   5.570000
 23
   5.860000
 33
   1.390000
 62
 44
  0
3DFACE
  8
CATTEXP
 10
   5.570000
 20
   5.860000
 30
   1.390000
 11
   5.930000
 21
   5.860000
 31
   1.390000
 12
   5.930000
 22
   5.290000
 32
   1.390000
 13
   5.570000
 23
   5.290000
 33
   1.390000
 62
 44
  0
3DFACE
  8
CATTEXP
 10
   5.570000
 20
   5.860000
 30
   0.890000
 11
   5.930000
 21
   5.860000
 31
   0.890000
 12
   5.930000
 22
   5.290000
 32
   0.890000
 13
   5.570000
 23
   5.290000
 33
   0.890000
 62
 44
  0
3DFACE
  8
CATTEXP
 10
   5.570000
 20
   5.290000
 30
   0.890000
 11
   5.930000
 21
   5.290000
 31
   0.890000
 12
   5.930000
 22
   5.860000
 32
   0.890000
 13
   5.570000
 23
   5.860000
 33
   0.890000
 62
 44
  0
3DFACE
  8
CATTEXP
 10
   5.930000
 20
   5.290000
 30
   0.390000
 11
   5.930000
 21
   5.860000
 31
   0.390000
 12
   5.570000
 22
   5.860000
 32
   0.390000
 13
   5.570000
 23
   5.290000
 33
   0.390000
 62
 44
  0
3DFACE
  8
CATTEXP
 10
   5.570000
 20
   5.290000
 30
   0.390000
 11
   5.570000
 21
   5.860000
 31
   0.390000
 12
   5.930000
 22
   5.860000
 32
   0.390000
 13
   5.930000
 23
   5.290000
 33
   0.390000
 62
 44
  0
3DFACE
  8
CATTEXP
 10
   5.570000
 20
   5.290000
 30
   1.920000
 11
   5.570000
 21
   5.290000
 31
   1.390000
 12
   5.930000
 22
   5.290000
 32
   1.390000
 13
   5.930000
 23
   5.290000
 33
   1.920000
 62
 44
  0
3DFACE
  8
CATTEXP
 10
   1.630000
 20
   1.150000
 30
   0.100000
 11
   1.630000
 21
   0.680000
 31
   0.100000
 12
   1.630000
 22
   0.680000
 32
   0.490000
 13
   1.630000
 23
   1.150000
 33
   0.490000
 62
170
  0
3DFACE
  8
CATTEXP
 10
   1.000000
 20
   0.680000
 30
   0.100000
 11
   1.000000
 21
   1.150000
 31
   0.100000
 12
   1.000000
 22
   1.150000
 32
   0.490000
 13
   1.000000
 23
   0.680000
 33
   0.490000
 62
170
  0
3DFACE
  8
CATTEXP
 10
   5.930000
 20
   5.290000
 30
   0.890000
 11
   5.930000
 21
   5.290000
 31
   1.390000
 12
   5.570000
 22
   5.290000
 32
   1.390000
 13
   5.570000
 23
   5.290000
 33
   0.890000
 62
 44
  0
3DFACE
  8
CATTEXP
 10
   5.570000
 20
   5.290000
 30
   0.890000
 11
   5.570000
 21
   5.290000
 31
   0.390000
 12
   5.930000
 22
   5.290000
 32
   0.390000
 13
   5.930000
 23
   5.290000
 33
   0.890000
 62
 44
  0
3DFACE
  8
CATTEXP
 10
   2.410000
 20
   4.970000
 30
   0.000000
 11
   2.410000
 21
   4.750000
 31
   0.000000
 12
   2.410000
 22
   4.750000
 32
   0.800000
 13
   2.410000
 23
   4.750000
 33
   0.800000
 62
  5
  0
3DFACE
  8
CATTEXP
 10
   2.410000
 20
   4.970000
 30
   0.800000
 11
   2.410000
 21
   4.970000
 31
   0.000000
 12
   2.410000
 22
   4.750000
 32
   0.800000
 13
   2.410000
 23
   4.750000
 33
   0.800000
 62
  5
  0
3DFACE
  8
CATTEXP
 10
   1.230000
 20
   1.770000
 30
   0.590000
 11
   1.230000
 21
   1.530000
 31
   0.590000
 12
   0.500000
 22
   1.530000
 32
   0.590000
 13
   0.500000
 23
   1.770000
 33
   0.590000
 62
  5
  0
3DFACE
  8
CATTEXP
 10
   7.060000
 20
   5.860000
 30
   0.890000
 11
   7.360000
 21
   5.860000
 31
   0.890000
 12
   7.360000
 22
   5.290000
 32
   0.890000
 13
   7.060000
 23
   5.290000
 33
   0.890000
 62
 44
  0
3DFACE
  8
CATTEXP
 10
   0.090000
 20
   7.370000
 30
   0.430000
 11
   0.470000
 21
   7.370000
 31
   0.430000
 12
   0.470000
 22
   7.370000
 32
   0.000000
 13
   0.090000
 23
   7.370000
 33
   0.000000
 62
 44
  0
3DFACE
  8
CATTEXP
 10
   1.230000
 20
   1.770000
 30
   0.590000
 11
   0.500000
 21
   1.770000
 31
   0.590000
 12
   0.500000
 22
   1.770000
 32
   0.370000
 13
   1.230000
 23
   1.770000
 33
   0.370000
 62
  5
  0
3DFACE
  8
CATTEXP
 10
   5.420000
 20
   1.020000
 30
   0.200000
 11
   5.420000
 21
   0.700000
 31
   0.200000
 12
   4.930000
 22
   0.800000
 32
   0.200000
 13
   4.920000
 23
   0.910000
 33
   0.200000
 62
 44
  0
3DFACE
  8
CATTEXP
 10
   4.920000
 20
   0.910000
 30
   0.200000
 11
   4.930000
 21
   0.800000
 31
   0.200000
 12
   5.420000
 22
   0.700000
 32
   0.200000
 13
   5.420000
 23
   1.020000
 33
   0.200000
 62
 44
  0
3DFACE
  8
CATTEXP
 10
   4.790000
 20
   0.060000
 30
   1.000000
 11
   4.470000
 21
   0.060000
 31
   1.000000
 12
   4.570000
 22
   0.550000
 32
   1.000000
 13
   4.690000
 23
   0.550000
 33
   1.000000
 62
 44
  0
3DFACE
  8
CATTEXP
 10
   4.690000
 20
   0.550000
 30
   1.000000
 11
   4.570000
 21
   0.550000
 31
   1.000000
 12
   4.470000
 22
   0.060000
 32
   1.000000
 13
   4.790000
 23
   0.060000
 33
   1.000000
 62
 44
  0
3DFACE
  8
CATTEXP
 10
   3.830000
 20
   1.000000
 30
   1.800000
 11
   3.830000
 21
   0.690000
 31
   1.800000
 12
   4.330000
 22
   0.790000
 32
   1.800000
 13
   4.330000
 23
   0.910000
 33
   1.800000
 62
 44
  0
3DFACE
  8
CATTEXP
 10
   4.330000
 20
   0.910000
 30
   1.800000
 11
   4.330000
 21
   0.790000
 31
   1.800000
 12
   3.830000
 22
   0.690000
 32
   1.800000
 13
   3.830000
 23
   1.000000
 33
   1.800000
 62
 44
  0
3DFACE
  8
CATTEXP
 10
   2.620000
 20
   7.370000
 30
   0.430000
 11
   2.980000
 21
   7.370000
 31
   0.430000
 12
   2.980000
 22
   7.370000
 32
   0.000000
 13
   2.620000
 23
   7.370000
 33
   0.000000
 62
 44
  0
3DFACE
  8
CATTEXP
 10
   3.390000
 20
   6.120000
 30
   2.000000
 11
   4.170000
 21
   6.120000
 31
   2.000000
 12
   4.170000
 22
   6.310000
 32
   2.000000
 13
   3.390000
 23
   6.310000
 33
   2.000000
 62
 44
  0
3DFACE
  8
CATTEXP
 10
   0.090000
 20
   7.700000
 30
   0.430000
 11
   0.090000
 21
   7.370000
 31
   0.430000
 12
   0.090000
 22
   7.370000
 32
   0.000000
 13
   0.090000
 23
   7.700000
 33
   0.000000
 62
 44
  0
3DFACE
  8
CATTEXP
 10
   0.470000
 20
   7.370000
 30
   0.430000
 11
   0.470000
 21
   7.700000
 31
   0.430000
 12
   0.470000
 22
   7.700000
 32
   0.000000
 13
   0.470000
 23
   7.370000
 33
   0.000000
 62
 44
  0
3DFACE
  8
CATTEXP
 10
   2.620000
 20
   7.700000
 30
   0.430000
 11
   2.620000
 21
   7.370000
 31
   0.430000
 12
   2.620000
 22
   7.370000
 32
   0.000000
 13
   2.620000
 23
   7.700000
 33
   0.000000
 62
 44
  0
3DFACE
  8
CATTEXP
 10
   2.980000
 20
   7.370000
 30
   0.430000
 11
   2.980000
 21
   7.700000
 31
   0.430000
 12
   2.980000
 22
   7.700000
 32
   0.000000
 13
   2.980000
 23
   7.370000
 33
   0.000000
 62
 44
  0
3DFACE
  8
CATTEXP
 10
   5.930000
 20
   5.290000
 30
   0.000000
 11
   5.930000
 21
   5.290000
 31
   0.390000
 12
   5.570000
 22
   5.290000
 32
   0.390000
 13
   5.570000
 23
   5.290000
 33
   0.000000
 62
 44
  0
3DFACE
  8
CATTEXP
 10
   5.600000
 20
   4.970000
 30
   0.800000
 11
   5.600000
 21
   4.600000
 31
   0.800000
 12
   5.230000
 22
   4.600000
 32
   0.800000
 13
   5.230000
 23
   4.970000
 33
   0.800000
 62
141
  0
3DFACE
  8
CATTEXP
 10
   3.400000
 20
   5.120000
 30
   2.000000
 11
   4.200000
 21
   5.120000
 31
   2.000000
 12
   4.200000
 22
   5.290000
 32
   2.000000
 13
   3.400000
 23
   5.290000
 33
   2.000000
 62
 44
  0
3DFACE
  8
CATTEXP
 10
   5.400000
 20
   6.750000
 30
   2.000000
 11
   5.400000
 21
   5.960000
 31
   2.000000
 12
   5.570000
 22
   5.960000
 32
   2.000000
 13
   5.570000
 23
   6.750000
 33
   2.000000
 62
 44
  0
3DFACE
  8
CATTEXP
 10
   0.470000
 20
   7.370000
 30
   0.430000
 11
   0.090000
 21
   7.370000
 31
   0.430000
 12
   0.090000
 22
   7.700000
 32
   0.430000
 13
   0.470000
 23
   7.700000
 33
   0.430000
 62
 44
  0
3DFACE
  8
CATTEXP
 10
   2.980000
 20
   7.370000
 30
   0.430000
 11
   2.620000
 21
   7.370000
 31
   0.430000
 12
   2.620000
 22
   7.700000
 32
   0.430000
 13
   2.980000
 23
   7.700000
 33
   0.430000
 62
 44
  0
3DFACE
  8
CATTEXP
 10
   1.630000
 20
   1.150000
 30
   0.490000
 11
   1.630000
 21
   0.680000
 31
   0.490000
 12
   1.630000
 22
   0.680000
 32
   0.740000
 13
   1.630000
 23
   1.150000
 33
   0.740000
 62
170
  0
3DFACE
  8
CATTEXP
 10
   1.630000
 20
   1.150000
 30
   0.740000
 11
   1.630000
 21
   0.680000
 31
   0.740000
 12
   1.630000
 22
   0.680000
 32
   0.490000
 13
   1.630000
 23
   1.150000
 33
   0.490000
 62
170
  0
3DFACE
  8
CATTEXP
 10
   1.000000
 20
   0.680000
 30
   0.490000
 11
   1.000000
 21
   1.150000
 31
   0.490000
 12
   1.000000
 22
   1.150000
 32
   0.740000
 13
   1.000000
 23
   0.680000
 33
   0.740000
 62
170
  0
3DFACE
  8
CATTEXP
 10
   1.000000
 20
   0.680000
 30
   0.740000
 11
   1.000000
 21
   1.150000
 31
   0.740000
 12
   1.000000
 22
   1.150000
 32
   0.490000
 13
   1.000000
 23
   0.680000
 33
   0.490000
 62
170
  0
3DFACE
  8
CATTEXP
 10
   3.100000
 20
   6.090000
 30
   2.000000
 11
   3.100000
 21
   5.310000
 31
   2.000000
 12
   3.250000
 22
   5.310000
 32
   2.000000
 13
   3.250000
 23
   6.090000
 33
   2.000000
 62
 44
  0
3DFACE
  8
CATTEXP
 10
   7.360000
 20
   4.620000
 30
   1.870000
 11
   6.760000
 21
   4.620000
 31
   1.870000
 12
   6.760000
 22
   4.780000
 32
   1.870000
 13
   7.360000
 23
   4.780000
 33
   1.870000
 62
141
  0
3DFACE
  8
CATTEXP
 10
   6.760000
 20
   4.620000
 30
   1.870000
 11
   7.360000
 21
   4.620000
 31
   1.870000
 12
   7.360000
 22
   4.620000
 32
   1.730000
 13
   6.760000
 23
   4.620000
 33
   1.730000
 62
141
  0
3DFACE
  8
CATTEXP
 10
   5.600000
 20
   4.600000
 30
   0.800000
 11
   5.600000
 21
   4.970000
 31
   0.800000
 12
   5.600000
 22
   4.970000
 32
   0.960000
 13
   5.600000
 23
   4.600000
 33
   0.960000
 62
141
  0
3DFACE
  8
CATTEXP
 10
   5.600000
 20
   4.970000
 30
   0.800000
 11
   5.230000
 21
   4.970000
 31
   0.800000
 12
   5.230000
 22
   4.970000
 32
   0.960000
 13
   5.600000
 23
   4.970000
 33
   0.960000
 62
141
  0
3DFACE
  8
CATTEXP
 10
   5.230000
 20
   4.970000
 30
   0.800000
 11
   5.230000
 21
   4.600000
 31
   0.800000
 12
   5.230000
 22
   4.600000
 32
   0.960000
 13
   5.230000
 23
   4.970000
 33
   0.960000
 62
141
  0
3DFACE
  8
CATTEXP
 10
   5.230000
 20
   4.600000
 30
   0.800000
 11
   5.600000
 21
   4.600000
 31
   0.800000
 12
   5.600000
 22
   4.600000
 32
   0.960000
 13
   5.230000
 23
   4.600000
 33
   0.960000
 62
141
  0
3DFACE
  8
CATTEXP
 10
   6.760000
 20
   5.120000
 30
   1.870000
 11
   6.760000
 21
   4.780000
 31
   1.870000
 12
   6.760000
 22
   4.780000
 32
   1.730000
 13
   6.760000
 23
   5.120000
 33
   1.730000
 62
141
  0
3DFACE
  8
CATTEXP
 10
   6.760000
 20
   4.620000
 30
   1.870000
 11
   6.760000
 21
   4.620000
 31
   1.730000
 12
   6.760000
 22
   4.780000
 32
   1.730000
 13
   6.760000
 23
   4.780000
 33
   1.870000
 62
141
  0
3DFACE
  8
CATTEXP
 10
   5.490000
 20
   1.770000
 30
   2.400000
 11
   7.360000
 21
   1.770000
 31
   2.400000
 12
   7.360000
 22
   4.780000
 32
   2.400000
 13
   7.360000
 23
   4.780000
 33
   2.400000
 62
111
  0
3DFACE
  8
CATTEXP
 10
   3.770000
 20
   0.000000
 30
   2.400000
 11
   5.490000
 21
   1.770000
 31
   2.400000
 12
   7.360000
 22
   4.780000
 32
   2.400000
 13
   7.360000
 23
   4.780000
 33
   2.400000
 62
111
  0
3DFACE
  8
CATTEXP
 10
   5.490000
 20
   0.000000
 30
   2.400000
 11
   5.490000
 21
   1.770000
 31
   2.400000
 12
   3.770000
 22
   0.000000
 32
   2.400000
 13
   3.770000
 23
   0.000000
 33
   2.400000
 62
111
  0
3DFACE
  8
CATTEXP
 10
   3.770000
 20
   0.850000
 30
   2.400000
 11
   3.770000
 21
   0.000000
 31
   2.400000
 12
   7.360000
 22
   4.780000
 32
   2.400000
 13
   7.360000
 23
   4.780000
 33
   2.400000
 62
111
  0
3DFACE
  8
CATTEXP
 10
   2.630000
 20
   0.850000
 30
   2.400000
 11
   3.770000
 21
   0.850000
 31
   2.400000
 12
   7.360000
 22
   4.780000
 32
   2.400000
 13
   7.360000
 23
   4.780000
 33
   2.400000
 62
111
  0
3DFACE
  8
CATTEXP
 10
   0.000000
 20
   0.000000
 30
   2.400000
 11
   2.630000
 21
   0.850000
 31
   2.400000
 12
   7.360000
 22
   4.780000
 32
   2.400000
 13
   7.360000
 23
   4.780000
 33
   2.400000
 62
111
  0
3DFACE
  8
CATTEXP
 10
   2.630000
 20
   0.000000
 30
   2.400000
 11
   2.630000
 21
   0.850000
 31
   2.400000
 12
   0.000000
 22
   0.000000
 32
   2.400000
 13
   0.000000
 23
   0.000000
 33
   2.400000
 62
111
  0
3DFACE
  8
CATTEXP
 10
   5.170000
 20
   4.480000
 30
   2.400000
 11
   0.000000
 21
   0.000000
 31
   2.400000
 12
   7.360000
 22
   4.780000
 32
   2.400000
 13
   7.360000
 23
   4.780000
 33
   2.400000
 62
111
  0
3DFACE
  8
CATTEXP
 10
   4.530000
 20
   4.480000
 30
   2.400000
 11
   0.000000
 21
   0.000000
 31
   2.400000
 12
   5.170000
 22
   4.480000
 32
   2.400000
 13
   5.170000
 23
   4.480000
 33
   2.400000
 62
111
  0
3DFACE
  8
CATTEXP
 10
   0.000000
 20
   5.120000
 30
   2.400000
 11
   0.000000
 21
   0.000000
 31
   2.400000
 12
   4.530000
 22
   4.480000
 32
   2.400000
 13
   4.530000
 23
   4.480000
 33
   2.400000
 62
111
  0
3DFACE
  8
CATTEXP
 10
   4.530000
 20
   5.120000
 30
   2.400000
 11
   0.000000
 21
   5.120000
 31
   2.400000
 12
   4.530000
 22
   4.480000
 32
   2.400000
 13
   4.530000
 23
   4.480000
 33
   2.400000
 62
111
  0
3DFACE
  8
CATTEXP
 10
   5.170000
 20
   4.780000
 30
   2.400000
 11
   5.170000
 21
   4.480000
 31
   2.400000
 12
   7.360000
 22
   4.780000
 32
   2.400000
 13
   7.360000
 23
   4.780000
 33
   2.400000
 62
111
  0
3DFACE
  8
CATTEXP
 10
   2.630000
 20
   0.000000
 30
   0.000000
 11
   1.230000
 21
   1.530000
 31
   0.000000
 12
   1.230000
 22
   3.990000
 32
   0.000000
 13
   1.230000
 23
   3.990000
 33
   0.000000
 62
254
  0
3DFACE
  8
CATTEXP
 10
   0.000000
 20
   1.530000
 30
   0.000000
 11
   1.230000
 21
   1.530000
 31
   0.000000
 12
   2.630000
 22
   0.000000
 32
   0.000000
 13
   2.630000
 23
   0.000000
 33
   0.000000
 62
254
  0
3DFACE
  8
CATTEXP
 10
   0.000000
 20
   0.000000
 30
   0.000000
 11
   0.000000
 21
   1.530000
 31
   0.000000
 12
   2.630000
 22
   0.000000
 32
   0.000000
 13
   2.630000
 23
   0.000000
 33
   0.000000
 62
254
  0
3DFACE
  8
CATTEXP
 10
   2.630000
 20
   0.850000
 30
   0.000000
 11
   2.630000
 21
   0.000000
 31
   0.000000
 12
   1.230000
 22
   3.990000
 32
   0.000000
 13
   1.230000
 23
   3.990000
 33
   0.000000
 62
254
  0
3DFACE
  8
CATTEXP
 10
   3.770000
 20
   0.850000
 30
   0.000000
 11
   2.630000
 21
   0.850000
 31
   0.000000
 12
   1.230000
 22
   3.990000
 32
   0.000000
 13
   1.230000
 23
   3.990000
 33
   0.000000
 62
254
  0
3DFACE
  8
CATTEXP
 10
   5.490000
 20
   0.000000
 30
   0.000000
 11
   3.770000
 21
   0.850000
 31
   0.000000
 12
   1.230000
 22
   3.990000
 32
   0.000000
 13
   1.230000
 23
   3.990000
 33
   0.000000
 62
254
  0
3DFACE
  8
CATTEXP
 10
   3.770000
 20
   0.000000
 30
   0.000000
 11
   3.770000
 21
   0.850000
 31
   0.000000
 12
   5.490000
 22
   0.000000
 32
   0.000000
 13
   5.490000
 23
   0.000000
 33
   0.000000
 62
254
  0
3DFACE
  8
CATTEXP
 10
   5.490000
 20
   1.770000
 30
   0.000000
 11
   5.490000
 21
   0.000000
 31
   0.000000
 12
   1.230000
 22
   3.990000
 32
   0.000000
 13
   1.230000
 23
   3.990000
 33
   0.000000
 62
254
  0
3DFACE
  8
CATTEXP
 10
   7.360000
 20
   1.770000
 30
   0.000000
 11
   5.490000
 21
   1.770000
 31
   0.000000
 12
   1.230000
 22
   3.990000
 32
   0.000000
 13
   1.230000
 23
   3.990000
 33
   0.000000
 62
254
  0
3DFACE
  8
CATTEXP
 10
   2.410000
 20
   3.990000
 30
   0.000000
 11
   7.360000
 21
   1.770000
 31
   0.000000
 12
   1.230000
 22
   3.990000
 32
   0.000000
 13
   1.230000
 23
   3.990000
 33
   0.000000
 62
254
  0
3DFACE
  8
CATTEXP
 10
   7.360000
 20
   4.480000
 30
   0.000000
 11
   7.360000
 21
   1.770000
 31
   0.000000
 12
   2.410000
 22
   3.990000
 32
   0.000000
 13
   2.410000
 23
   3.990000
 33
   0.000000
 62
254
  0
3DFACE
  8
CATTEXP
 10
   4.530000
 20
   4.480000
 30
   0.000000
 11
   7.360000
 21
   4.480000
 31
   0.000000
 12
   2.410000
 22
   3.990000
 32
   0.000000
 13
   2.410000
 23
   3.990000
 33
   0.000000
 62
254
  0
3DFACE
  8
CATTEXP
 10
   4.530000
 20
   5.120000
 30
   0.000000
 11
   4.530000
 21
   4.480000
 31
   0.000000
 12
   2.410000
 22
   3.990000
 32
   0.000000
 13
   2.410000
 23
   3.990000
 33
   0.000000
 62
254
  0
3DFACE
  8
CATTEXP
 10
   2.410000
 20
   5.120000
 30
   0.000000
 11
   4.530000
 21
   5.120000
 31
   0.000000
 12
   2.410000
 22
   3.990000
 32
   0.000000
 13
   2.410000
 23
   3.990000
 33
   0.000000
 62
254
  0
3DFACE
  8
CATTEXP
 10
   2.980000
 20
   7.700000
 30
   0.000000
 11
   3.100000
 21
   7.700000
 31
   0.000000
 12
   3.100000
 22
   5.290000
 32
   0.000000
 13
   3.100000
 23
   5.290000
 33
   0.000000
 62
191
  0
3DFACE
  8
CATTEXP
 10
   2.980000
 20
   7.370000
 30
   0.000000
 11
   2.980000
 21
   7.700000
 31
   0.000000
 12
   3.100000
 22
   5.290000
 32
   0.000000
 13
   3.100000
 23
   5.290000
 33
   0.000000
 62
191
  0
3DFACE
  8
CATTEXP
 10
   2.620000
 20
   7.370000
 30
   0.000000
 11
   2.980000
 21
   7.370000
 31
   0.000000
 12
   3.100000
 22
   5.290000
 32
   0.000000
 13
   3.100000
 23
   5.290000
 33
   0.000000
 62
191
  0
3DFACE
  8
CATTEXP
 10
   2.510000
 20
   7.700000
 30
   0.000000
 11
   2.620000
 21
   7.370000
 31
   0.000000
 12
   3.100000
 22
   5.290000
 32
   0.000000
 13
   3.100000
 23
   5.290000
 33
   0.000000
 62
191
  0
3DFACE
  8
CATTEXP
 10
   2.620000
 20
   7.700000
 30
   0.000000
 11
   2.620000
 21
   7.370000
 31
   0.000000
 12
   2.510000
 22
   7.700000
 32
   0.000000
 13
   2.510000
 23
   7.700000
 33
   0.000000
 62
191
  0
3DFACE
  8
CATTEXP
 10
   2.510000
 20
   6.180000
 30
   0.000000
 11
   2.510000
 21
   7.700000
 31
   0.000000
 12
   3.100000
 22
   5.290000
 32
   0.000000
 13
   3.100000
 23
   5.290000
 33
   0.000000
 62
191
  0
3DFACE
  8
CATTEXP
 10
   0.570000
 20
   6.180000
 30
   0.000000
 11
   2.510000
 21
   6.180000
 31
   0.000000
 12
   3.100000
 22
   5.290000
 32
   0.000000
 13
   3.100000
 23
   5.290000
 33
   0.000000
 62
191
  0
3DFACE
  8
CATTEXP
 10
   0.870000
 20
   5.760000
 30
   0.000000
 11
   0.570000
 21
   6.180000
 31
   0.000000
 12
   3.100000
 22
   5.290000
 32
   0.000000
 13
   3.100000
 23
   5.290000
 33
   0.000000
 62
191
  0
3DFACE
  8
CATTEXP
 10
   0.000000
 20
   5.760000
 30
   0.000000
 11
   0.570000
 21
   6.180000
 31
   0.000000
 12
   0.870000
 22
   5.760000
 32
   0.000000
 13
   0.870000
 23
   5.760000
 33
   0.000000
 62
191
  0
3DFACE
  8
CATTEXP
 10
   0.570000
 20
   7.700000
 30
   0.000000
 11
   0.570000
 21
   6.180000
 31
   0.000000
 12
   0.000000
 22
   5.760000
 32
   0.000000
 13
   0.000000
 23
   5.760000
 33
   0.000000
 62
191
  0
3DFACE
  8
CATTEXP
 10
   0.470000
 20
   7.370000
 30
   0.000000
 11
   0.570000
 21
   7.700000
 31
   0.000000
 12
   0.000000
 22
   5.760000
 32
   0.000000
 13
   0.000000
 23
   5.760000
 33
   0.000000
 62
191
  0
3DFACE
  8
CATTEXP
 10
   0.470000
 20
   7.700000
 30
   0.000000
 11
   0.570000
 21
   7.700000
 31
   0.000000
 12
   0.470000
 22
   7.370000
 32
   0.000000
 13
   0.470000
 23
   7.370000
 33
   0.000000
 62
191
  0
3DFACE
  8
CATTEXP
 10
   0.090000
 20
   7.370000
 30
   0.000000
 11
   0.470000
 21
   7.370000
 31
   0.000000
 12
   0.000000
 22
   5.760000
 32
   0.000000
 13
   0.000000
 23
   5.760000
 33
   0.000000
 62
191
  0
3DFACE
  8
CATTEXP
 10
   0.090000
 20
   7.700000
 30
   0.000000
 11
   0.090000
 21
   7.370000
 31
   0.000000
 12
   0.000000
 22
   5.760000
 32
   0.000000
 13
   0.000000
 23
   5.760000
 33
   0.000000
 62
191
  0
3DFACE
  8
CATTEXP
 10
   0.000000
 20
   7.700000
 30
   0.000000
 11
   0.090000
 21
   7.700000
 31
   0.000000
 12
   0.000000
 22
   5.760000
 32
   0.000000
 13
   0.000000
 23
   5.760000
 33
   0.000000
 62
191
  0
3DFACE
  8
CATTEXP
 10
   0.870000
 20
   5.290000
 30
   0.000000
 11
   0.870000
 21
   5.760000
 31
   0.000000
 12
   3.100000
 22
   5.290000
 32
   0.000000
 13
   3.100000
 23
   5.290000
 33
   0.000000
 62
191
  0
3DFACE
  8
CATTEXP
 10
   7.360000
 20
   4.620000
 30
   1.870000
 11
   7.360000
 21
   4.780000
 31
   1.870000
 12
   7.360000
 22
   4.780000
 32
   2.400000
 13
   7.360000
 23
   4.780000
 33
   2.400000
 62
233
  0
3DFACE
  8
CATTEXP
 10
   7.360000
 20
   4.480000
 30
   1.730000
 11
   7.360000
 21
   4.620000
 31
   1.870000
 12
   7.360000
 22
   4.780000
 32
   2.400000
 13
   7.360000
 23
   4.780000
 33
   2.400000
 62
233
  0
3DFACE
  8
CATTEXP
 10
   7.360000
 20
   4.620000
 30
   1.730000
 11
   7.360000
 21
   4.620000
 31
   1.870000
 12
   7.360000
 22
   4.480000
 32
   1.730000
 13
   7.360000
 23
   4.480000
 33
   1.730000
 62
233
  0
3DFACE
  8
CATTEXP
 10
   7.360000
 20
   1.770000
 30
   0.000000
 11
   7.360000
 21
   4.480000
 31
   1.730000
 12
   7.360000
 22
   4.780000
 32
   2.400000
 13
   7.360000
 23
   4.780000
 33
   2.400000
 62
233
  0
3DFACE
  8
CATTEXP
 10
   7.360000
 20
   4.480000
 30
   0.000000
 11
   7.360000
 21
   4.480000
 31
   1.730000
 12
   7.360000
 22
   1.770000
 32
   0.000000
 13
   7.360000
 23
   1.770000
 33
   0.000000
 62
233
  0
3DFACE
  8
CATTEXP
 10
   7.360000
 20
   1.770000
 30
   2.400000
 11
   7.360000
 21
   1.770000
 31
   0.000000
 12
   7.360000
 22
   4.780000
 32
   2.400000
 13
   7.360000
 23
   4.780000
 33
   2.400000
 62
233
  0
3DFACE
  8
CATTEXP
 10
   7.360000
 20
   3.560000
 30
   0.820000
 11
   7.360000
 21
   3.930000
 31
   0.820000
 12
   7.360000
 22
   3.930000
 32
   2.110000
 13
   7.360000
 23
   3.560000
 33
   2.110000
 62
233
  0
3DFACE
  8
CATTEXP
 10
   7.360000
 20
   3.960000
 30
   1.910000
 11
   7.360000
 21
   3.960000
 31
   1.020000
 12
   7.360000
 22
   4.390000
 32
   1.020000
 13
   7.360000
 23
   4.390000
 33
   1.910000
 62
161
  0
3DFACE
  8
CATTEXP
 10
   7.360000
 20
   4.620000
 30
   1.870000
 11
   7.360000
 21
   4.780000
 31
   1.870000
 12
   7.360000
 22
   4.780000
 32
   2.400000
 13
   7.360000
 23
   4.780000
 33
   2.400000
 62
 40
  0
3DFACE
  8
CATTEXP
 10
   7.360000
 20
   4.480000
 30
   1.730000
 11
   7.360000
 21
   4.620000
 31
   1.870000
 12
   7.360000
 22
   4.780000
 32
   2.400000
 13
   7.360000
 23
   4.780000
 33
   2.400000
 62
 40
  0
3DFACE
  8
CATTEXP
 10
   7.360000
 20
   4.620000
 30
   1.730000
 11
   7.360000
 21
   4.620000
 31
   1.870000
 12
   7.360000
 22
   4.480000
 32
   1.730000
 13
   7.360000
 23
   4.480000
 33
   1.730000
 62
 40
  0
3DFACE
  8
CATTEXP
 10
   7.360000
 20
   1.770000
 30
   0.000000
 11
   7.360000
 21
   4.480000
 31
   1.730000
 12
   7.360000
 22
   4.780000
 32
   2.400000
 13
   7.360000
 23
   4.780000
 33
   2.400000
 62
 40
  0
3DFACE
  8
CATTEXP
 10
   7.360000
 20
   4.480000
 30
   0.000000
 11
   7.360000
 21
   4.480000
 31
   1.730000
 12
   7.360000
 22
   1.770000
 32
   0.000000
 13
   7.360000
 23
   1.770000
 33
   0.000000
 62
 40
  0
3DFACE
  8
CATTEXP
 10
   7.360000
 20
   1.770000
 30
   2.400000
 11
   7.360000
 21
   1.770000
 31
   0.000000
 12
   7.360000
 22
   4.780000
 32
   2.400000
 13
   7.360000
 23
   4.780000
 33
   2.400000
 62
 40
  0
3DFACE
  8
CATTEXP
 10
   5.570000
 20
   5.860000
 30
   0.000000
 11
   5.930000
 21
   5.860000
 31
   0.000000
 12
   5.930000
 22
   5.290000
 32
   0.000000
 13
   5.570000
 23
   5.290000
 33
   0.000000
 62
 44
  0
3DFACE
  8
CATTEXP
 10
   0.000000
 20
   0.000000
 30
   2.400000
 11
   0.000000
 21
   5.120000
 31
   2.400000
 12
   0.000000
 22
   5.120000
 32
   0.000000
 13
   0.000000
 23
   5.120000
 33
   0.000000
 62
 33
  0
3DFACE
  8
CATTEXP
 10
   0.000000
 20
   0.000000
 30
   0.000000
 11
   0.000000
 21
   0.000000
 31
   2.400000
 12
   0.000000
 22
   5.120000
 32
   0.000000
 13
   0.000000
 23
   5.120000
 33
   0.000000
 62
 33
  0
3DFACE
  8
CATTEXP
 10
   0.000000
 20
   2.180000
 30
   1.790000
 11
   0.000000
 21
   3.680000
 31
   1.790000
 12
   0.000000
 22
   3.680000
 32
   1.250000
 13
   0.000000
 23
   2.180000
 33
   1.250000
 62
 33
  0
3DFACE
  8
CATTEXP
 10
   0.000000
 20
   4.870000
 30
   0.410000
 11
   0.000000
 21
   4.670000
 31
   0.410000
 12
   0.000000
 22
   4.670000
 32
   2.210000
 13
   0.000000
 23
   4.870000
 33
   2.210000
 62
233
  0
3DFACE
  8
CATTEXP
 10
   0.000000
 20
   4.640000
 30
   1.970000
 11
   0.000000
 21
   4.640000
 31
   0.710000
 12
   0.000000
 22
   4.020000
 32
   0.710000
 13
   0.000000
 23
   4.020000
 33
   1.970000
 62
161
  0
3DFACE
  8
CATTEXP
 10
   0.000000
 20
   0.000000
 30
   2.400000
 11
   0.000000
 21
   5.120000
 31
   2.400000
 12
   0.000000
 22
   5.120000
 32
   0.000000
 13
   0.000000
 23
   5.120000
 33
   0.000000
 62
 40
  0
3DFACE
  8
CATTEXP
 10
   0.000000
 20
   0.000000
 30
   0.000000
 11
   0.000000
 21
   0.000000
 31
   2.400000
 12
   0.000000
 22
   5.120000
 32
   0.000000
 13
   0.000000
 23
   5.120000
 33
   0.000000
 62
 40
  0
3DFACE
  8
CATTEXP
 10
   0.000000
 20
   5.120000
 30
   0.000000
 11
   2.410000
 21
   5.120000
 31
   0.000000
 12
   2.410000
 22
   4.970000
 32
   0.000000
 13
   2.410000
 23
   4.970000
 33
   0.000000
 62
254
  0
3DFACE
  8
CATTEXP
 10
   0.280000
 20
   4.970000
 30
   0.000000
 11
   0.000000
 21
   5.120000
 31
   0.000000
 12
   2.410000
 22
   4.970000
 32
   0.000000
 13
   2.410000
 23
   4.970000
 33
   0.000000
 62
254
  0
3DFACE
  8
CATTEXP
 10
   0.000000
 20
   1.530000
 30
   0.000000
 11
   0.000000
 21
   5.120000
 31
   0.000000
 12
   0.280000
 22
   4.970000
 32
   0.000000
 13
   0.280000
 23
   4.970000
 33
   0.000000
 62
254
  0
3DFACE
  8
CATTEXP
 10
   0.280000
 20
   1.530000
 30
   0.000000
 11
   0.000000
 21
   1.530000
 31
   0.000000
 12
   0.280000
 22
   4.970000
 32
   0.000000
 13
   0.280000
 23
   4.970000
 33
   0.000000
 62
254
  0
3DFACE
  8
CATTEXP
 10
   0.300000
 20
   0.000000
 30
   2.400000
 11
   0.300000
 21
   0.000000
 31
   0.000000
 12
   2.330000
 22
   0.000000
 32
   0.000000
 13
   2.330000
 23
   0.000000
 33
   0.000000
 62
161
  0
3DFACE
  8
CATTEXP
 10
   2.330000
 20
   0.000000
 30
   2.400000
 11
   0.300000
 21
   0.000000
 31
   2.400000
 12
   2.330000
 22
   0.000000
 32
   0.000000
 13
   2.330000
 23
   0.000000
 33
   0.000000
 62
161
  0
3DFACE
  8
CATTEXP
 10
   0.380000
 20
   0.000000
 30
   2.190000
 11
   0.380000
 21
   0.000000
 31
   0.320000
 12
   2.270000
 22
   0.000000
 32
   0.320000
 13
   2.270000
 23
   0.000000
 33
   2.190000
 62
161
  0
3DFACE
  8
CATTEXP
 10
   0.300000
 20
   0.000000
 30
   2.400000
 11
   0.300000
 21
   0.000000
 31
   0.000000
 12
   2.330000
 22
   0.000000
 32
   0.000000
 13
   2.330000
 23
   0.000000
 33
   0.000000
 62
 40
  0
3DFACE
  8
CATTEXP
 10
   2.330000
 20
   0.000000
 30
   2.400000
 11
   0.300000
 21
   0.000000
 31
   2.400000
 12
   2.330000
 22
   0.000000
 32
   0.000000
 13
   2.330000
 23
   0.000000
 33
   0.000000
 62
 40
  0
3DFACE
  8
CATTEXP
 10
   0.000000
 20
   0.000000
 30
   0.000000
 11
   0.300000
 21
   0.000000
 31
   0.000000
 12
   0.300000
 22
   0.000000
 32
   2.400000
 13
   0.000000
 23
   0.000000
 33
   2.400000
 62
233
  0
3DFACE
  8
CATTEXP
 10
   7.360000
 20
   4.480000
 30
   1.730000
 11
   7.360000
 21
   4.480000
 31
   0.960000
 12
   7.360000
 22
   5.120000
 32
   0.960000
 13
   7.360000
 23
   5.120000
 33
   0.960000
 62
254
  0
3DFACE
  8
CATTEXP
 10
   7.360000
 20
   5.120000
 30
   1.730000
 11
   7.360000
 21
   4.480000
 31
   1.730000
 12
   7.360000
 22
   5.120000
 32
   0.960000
 13
   7.360000
 23
   5.120000
 33
   0.960000
 62
254
  0
3DFACE
  8
CATTEXP
 10
   4.190000
 20
   5.290000
 30
   0.000000
 11
   4.190000
 21
   5.120000
 31
   0.000000
 12
   3.400000
 22
   5.120000
 32
   0.000000
 13
   3.400000
 23
   5.120000
 33
   0.000000
 62
 31
  0
3DFACE
  8
CATTEXP
 10
   5.400000
 20
   5.960000
 30
   0.000000
 11
   4.190000
 21
   5.290000
 31
   0.000000
 12
   3.400000
 22
   5.120000
 32
   0.000000
 13
   3.400000
 23
   5.120000
 33
   0.000000
 62
 31
  0
3DFACE
  8
CATTEXP
 10
   5.400000
 20
   5.290000
 30
   0.000000
 11
   4.190000
 21
   5.290000
 31
   0.000000
 12
   5.400000
 22
   5.960000
 32
   0.000000
 13
   5.400000
 23
   5.960000
 33
   0.000000
 62
 31
  0
3DFACE
  8
CATTEXP
 10
   5.570000
 20
   6.750000
 30
   0.000000
 11
   5.400000
 21
   5.960000
 31
   0.000000
 12
   3.400000
 22
   5.120000
 32
   0.000000
 13
   3.400000
 23
   5.120000
 33
   0.000000
 62
 31
  0
3DFACE
  8
CATTEXP
 10
   5.570000
 20
   5.960000
 30
   0.000000
 11
   5.400000
 21
   5.960000
 31
   0.000000
 12
   5.570000
 22
   6.750000
 32
   0.000000
 13
   5.570000
 23
   6.750000
 33
   0.000000
 62
 31
  0
3DFACE
  8
CATTEXP
 10
   5.400000
 20
   6.750000
 30
   0.000000
 11
   5.570000
 21
   6.750000
 31
   0.000000
 12
   3.400000
 22
   5.120000
 32
   0.000000
 13
   3.400000
 23
   5.120000
 33
   0.000000
 62
 31
  0
3DFACE
  8
CATTEXP
 10
   4.450000
 20
   6.120000
 30
   0.000000
 11
   5.400000
 21
   6.750000
 31
   0.000000
 12
   3.400000
 22
   5.120000
 32
   0.000000
 13
   3.400000
 23
   5.120000
 33
   0.000000
 62
 31
  0
3DFACE
  8
CATTEXP
 10
   5.400000
 20
   7.700000
 30
   0.000000
 11
   5.400000
 21
   6.750000
 31
   0.000000
 12
   4.450000
 22
   6.120000
 32
   0.000000
 13
   4.450000
 23
   6.120000
 33
   0.000000
 62
 31
  0
3DFACE
  8
CATTEXP
 10
   4.450000
 20
   7.700000
 30
   0.000000
 11
   5.400000
 21
   7.700000
 31
   0.000000
 12
   4.450000
 22
   6.120000
 32
   0.000000
 13
   4.450000
 23
   6.120000
 33
   0.000000
 62
 31
  0
3DFACE
  8
CATTEXP
 10
   4.170000
 20
   6.120000
 30
   0.000000
 11
   4.450000
 21
   6.120000
 31
   0.000000
 12
   3.400000
 22
   5.120000
 32
   0.000000
 13
   3.400000
 23
   5.120000
 33
   0.000000
 62
 31
  0
3DFACE
  8
CATTEXP
 10
   4.170000
 20
   6.310000
 30
   0.000000
 11
   4.170000
 21
   6.120000
 31
   0.000000
 12
   3.400000
 22
   5.120000
 32
   0.000000
 13
   3.400000
 23
   5.120000
 33
   0.000000
 62
 31
  0
3DFACE
  8
CATTEXP
 10
   3.400000
 20
   5.290000
 30
   0.000000
 11
   4.170000
 21
   6.310000
 31
   0.000000
 12
   3.400000
 22
   5.120000
 32
   0.000000
 13
   3.400000
 23
   5.120000
 33
   0.000000
 62
 31
  0
3DFACE
  8
CATTEXP
 10
   3.390000
 20
   6.310000
 30
   0.000000
 11
   4.170000
 21
   6.310000
 31
   0.000000
 12
   3.400000
 22
   5.290000
 32
   0.000000
 13
   3.400000
 23
   5.290000
 33
   0.000000
 62
 31
  0
3DFACE
  8
CATTEXP
 10
   3.390000
 20
   6.120000
 30
   0.000000
 11
   3.390000
 21
   6.310000
 31
   0.000000
 12
   3.400000
 22
   5.290000
 32
   0.000000
 13
   3.400000
 23
   5.290000
 33
   0.000000
 62
 31
  0
3DFACE
  8
CATTEXP
 10
   3.250000
 20
   6.120000
 30
   0.000000
 11
   3.390000
 21
   6.120000
 31
   0.000000
 12
   3.400000
 22
   5.290000
 32
   0.000000
 13
   3.400000
 23
   5.290000
 33
   0.000000
 62
 31
  0
3DFACE
  8
CATTEXP
 10
   3.250000
 20
   6.090000
 30
   0.000000
 11
   3.250000
 21
   6.120000
 31
   0.000000
 12
   3.400000
 22
   5.290000
 32
   0.000000
 13
   3.400000
 23
   5.290000
 33
   0.000000
 62
 31
  0
3DFACE
  8
CATTEXP
 10
   3.100000
 20
   6.090000
 30
   0.000000
 11
   3.250000
 21
   6.090000
 31
   0.000000
 12
   3.400000
 22
   5.290000
 32
   0.000000
 13
   3.400000
 23
   5.290000
 33
   0.000000
 62
 31
  0
3DFACE
  8
CATTEXP
 10
   3.250000
 20
   5.310000
 30
   0.000000
 11
   3.100000
 21
   6.090000
 31
   0.000000
 12
   3.400000
 22
   5.290000
 32
   0.000000
 13
   3.400000
 23
   5.290000
 33
   0.000000
 62
 31
  0
3DFACE
  8
CATTEXP
 10
   3.100000
 20
   5.310000
 30
   0.000000
 11
   3.100000
 21
   6.090000
 31
   0.000000
 12
   3.250000
 22
   5.310000
 32
   0.000000
 13
   3.250000
 23
   5.310000
 33
   0.000000
 62
 31
  0
3DFACE
  8
CATTEXP
 10
   3.250000
 20
   5.290000
 30
   0.000000
 11
   3.250000
 21
   5.310000
 31
   0.000000
 12
   3.400000
 22
   5.290000
 32
   0.000000
 13
   3.400000
 23
   5.290000
 33
   0.000000
 62
 31
  0
3DFACE
  8
CATTEXP
 10
   5.570000
 20
   7.700000
 30
   0.000000
 11
   5.570000
 21
   7.700000
 31
   2.400000
 12
   7.360000
 22
   7.700000
 32
   2.400000
 13
   7.360000
 23
   7.700000
 33
   0.000000
 62
254
  0
3DFACE
  8
CATTEXP
 10
   5.570000
 20
   6.830000
 30
   0.000000
 11
   5.570000
 21
   7.700000
 31
   0.000000
 12
   7.360000
 22
   7.700000
 32
   0.000000
 13
   7.360000
 23
   6.830000
 33
   0.000000
 62
254
  0
3DFACE
  8
CATTEXP
 10
   7.360000
 20
   6.830000
 30
   0.000000
 11
   7.360000
 21
   6.830000
 31
   2.400000
 12
   7.360000
 22
   5.290000
 32
   2.400000
 13
   7.360000
 23
   5.290000
 33
   2.400000
 62
161
  0
3DFACE
  8
CATTEXP
 10
   7.360000
 20
   5.860000
 30
   0.890000
 11
   7.360000
 21
   6.830000
 31
   0.000000
 12
   7.360000
 22
   5.290000
 32
   2.400000
 13
   7.360000
 23
   5.290000
 33
   2.400000
 62
161
  0
3DFACE
  8
CATTEXP
 10
   7.360000
 20
   5.860000
 30
   0.000000
 11
   7.360000
 21
   6.830000
 31
   0.000000
 12
   7.360000
 22
   5.860000
 32
   0.890000
 13
   7.360000
 23
   5.860000
 33
   0.890000
 62
161
  0
3DFACE
  8
CATTEXP
 10
   7.360000
 20
   5.290000
 30
   0.890000
 11
   7.360000
 21
   5.860000
 31
   0.890000
 12
   7.360000
 22
   5.290000
 32
   2.400000
 13
   7.360000
 23
   5.290000
 33
   2.400000
 62
161
  0
3DFACE
  8
CATTEXP
 10
   7.360000
 20
   6.060000
 30
   1.020000
 11
   7.360000
 21
   6.710000
 31
   1.020000
 12
   7.360000
 22
   6.710000
 32
   1.910000
 13
   7.360000
 23
   6.060000
 33
   1.910000
 62
161
  0
3DFACE
  8
CATTEXP
 10
   7.360000
 20
   6.830000
 30
   0.000000
 11
   7.360000
 21
   6.830000
 31
   2.400000
 12
   7.360000
 22
   5.290000
 32
   2.400000
 13
   7.360000
 23
   5.290000
 33
   2.400000
 62
254
  0
3DFACE
  8
CATTEXP
 10
   7.360000
 20
   5.860000
 30
   0.890000
 11
   7.360000
 21
   6.830000
 31
   0.000000
 12
   7.360000
 22
   5.290000
 32
   2.400000
 13
   7.360000
 23
   5.290000
 33
   2.400000
 62
254
  0
3DFACE
  8
CATTEXP
 10
   7.360000
 20
   5.860000
 30
   0.000000
 11
   7.360000
 21
   6.830000
 31
   0.000000
 12
   7.360000
 22
   5.860000
 32
   0.890000
 13
   7.360000
 23
   5.860000
 33
   0.890000
 62
254
  0
3DFACE
  8
CATTEXP
 10
   7.360000
 20
   5.290000
 30
   0.890000
 11
   7.360000
 21
   5.860000
 31
   0.890000
 12
   7.360000
 22
   5.290000
 32
   2.400000
 13
   7.360000
 23
   5.290000
 33
   2.400000
 62
254
  0
3DFACE
  8
CATTEXP
 10
   7.360000
 20
   6.830000
 30
   2.400000
 11
   7.360000
 21
   6.830000
 31
   0.000000
 12
   7.360000
 22
   7.700000
 32
   0.000000
 13
   7.360000
 23
   7.700000
 33
   0.000000
 62
254
  0
3DFACE
  8
CATTEXP
 10
   7.360000
 20
   7.700000
 30
   2.400000
 11
   7.360000
 21
   6.830000
 31
   2.400000
 12
   7.360000
 22
   7.700000
 32
   0.000000
 13
   7.360000
 23
   7.700000
 33
   0.000000
 62
254
  0
3DFACE
  8
CATTEXP
 10
   5.400000
 20
   7.700000
 30
   2.400000
 11
   5.400000
 21
   7.700000
 31
   0.000000
 12
   5.370000
 22
   7.700000
 32
   0.000000
 13
   5.370000
 23
   7.700000
 33
   0.000000
 62
 40
  0
3DFACE
  8
CATTEXP
 10
   5.370000
 20
   7.700000
 30
   2.000000
 11
   5.400000
 21
   7.700000
 31
   2.400000
 12
   5.370000
 22
   7.700000
 32
   0.000000
 13
   5.370000
 23
   7.700000
 33
   0.000000
 62
 40
  0
3DFACE
  8
CATTEXP
 10
   4.450000
 20
   7.700000
 30
   2.400000
 11
   5.400000
 21
   7.700000
 31
   2.400000
 12
   5.370000
 22
   7.700000
 32
   2.000000
 13
   5.370000
 23
   7.700000
 33
   2.000000
 62
 40
  0
3DFACE
  8
CATTEXP
 10
   4.490000
 20
   7.700000
 30
   2.000000
 11
   4.450000
 21
   7.700000
 31
   2.400000
 12
   5.370000
 22
   7.700000
 32
   2.000000
 13
   5.370000
 23
   7.700000
 33
   2.000000
 62
 40
  0
3DFACE
  8
CATTEXP
 10
   4.450000
 20
   7.700000
 30
   0.000000
 11
   4.450000
 21
   7.700000
 31
   2.400000
 12
   4.490000
 22
   7.700000
 32
   2.000000
 13
   4.490000
 23
   7.700000
 33
   2.000000
 62
 40
  0
3DFACE
  8
CATTEXP
 10
   4.490000
 20
   7.700000
 30
   0.000000
 11
   4.450000
 21
   7.700000
 31
   0.000000
 12
   4.490000
 22
   7.700000
 32
   2.000000
 13
   4.490000
 23
   7.700000
 33
   2.000000
 62
 40
  0
3DFACE
  8
CATTEXP
 10
   7.360000
 20
   5.290000
 30
   2.400000
 11
   7.360000
 21
   7.700000
 31
   2.400000
 12
   5.570000
 22
   7.700000
 32
   2.400000
 13
   5.570000
 23
   7.700000
 33
   2.400000
 62
111
  0
3DFACE
  8
CATTEXP
 10
   5.570000
 20
   5.290000
 30
   2.400000
 11
   7.360000
 21
   5.290000
 31
   2.400000
 12
   5.570000
 22
   7.700000
 32
   2.400000
 13
   5.570000
 23
   7.700000
 33
   2.400000
 62
111
  0
3DFACE
  8
CATTEXP
 10
   0.000000
 20
   5.290000
 30
   2.400000
 11
   0.000000
 21
   7.700000
 31
   2.400000
 12
   0.000000
 22
   7.700000
 32
   0.000000
 13
   0.000000
 23
   7.700000
 33
   0.000000
 62
161
  0
3DFACE
  8
CATTEXP
 10
   0.000000
 20
   5.760000
 30
   1.930000
 11
   0.000000
 21
   5.290000
 31
   2.400000
 12
   0.000000
 22
   7.700000
 32
   0.000000
 13
   0.000000
 23
   7.700000
 33
   0.000000
 62
161
  0
3DFACE
  8
CATTEXP
 10
   0.000000
 20
   5.290000
 30
   1.930000
 11
   0.000000
 21
   5.290000
 31
   2.400000
 12
   0.000000
 22
   5.760000
 32
   1.930000
 13
   0.000000
 23
   5.760000
 33
   1.930000
 62
161
  0
3DFACE
  8
CATTEXP
 10
   0.000000
 20
   5.760000
 30
   0.000000
 11
   0.000000
 21
   5.760000
 31
   1.930000
 12
   0.000000
 22
   7.700000
 32
   0.000000
 13
   0.000000
 23
   7.700000
 33
   0.000000
 62
161
  0
3DFACE
  8
CATTEXP
 10
   0.000000
 20
   6.220000
 30
   1.020000
 11
   0.000000
 21
   6.220000
 31
   1.910000
 12
   0.000000
 22
   6.860000
 32
   1.910000
 13
   0.000000
 23
   6.860000
 33
   1.020000
 62
161
  0
3DFACE
  8
CATTEXP
 10
   0.000000
 20
   5.290000
 30
   2.400000
 11
   0.000000
 21
   7.700000
 31
   2.400000
 12
   0.000000
 22
   7.700000
 32
   0.000000
 13
   0.000000
 23
   7.700000
 33
   0.000000
 62
 40
  0
3DFACE
  8
CATTEXP
 10
   0.000000
 20
   5.760000
 30
   1.930000
 11
   0.000000
 21
   5.290000
 31
   2.400000
 12
   0.000000
 22
   7.700000
 32
   0.000000
 13
   0.000000
 23
   7.700000
 33
   0.000000
 62
 40
  0
3DFACE
  8
CATTEXP
 10
   0.000000
 20
   5.290000
 30
   1.930000
 11
   0.000000
 21
   5.290000
 31
   2.400000
 12
   0.000000
 22
   5.760000
 32
   1.930000
 13
   0.000000
 23
   5.760000
 33
   1.930000
 62
 40
  0
3DFACE
  8
CATTEXP
 10
   0.000000
 20
   5.760000
 30
   0.000000
 11
   0.000000
 21
   5.760000
 31
   1.930000
 12
   0.000000
 22
   7.700000
 32
   0.000000
 13
   0.000000
 23
   7.700000
 33
   0.000000
 62
 40
  0
3DFACE
  8
CATTEXP
 10
   2.980000
 20
   7.700000
 30
   0.430000
 11
   3.100000
 21
   7.700000
 31
   2.400000
 12
   3.100000
 22
   7.700000
 32
   0.000000
 13
   3.100000
 23
   7.700000
 33
   0.000000
 62
 33
  0
3DFACE
  8
CATTEXP
 10
   0.000000
 20
   7.700000
 30
   2.400000
 11
   3.100000
 21
   7.700000
 31
   2.400000
 12
   2.980000
 22
   7.700000
 32
   0.430000
 13
   2.980000
 23
   7.700000
 33
   0.430000
 62
 33
  0
3DFACE
  8
CATTEXP
 10
   0.090000
 20
   7.700000
 30
   0.430000
 11
   0.000000
 21
   7.700000
 31
   2.400000
 12
   2.980000
 22
   7.700000
 32
   0.430000
 13
   2.980000
 23
   7.700000
 33
   0.430000
 62
 33
  0
3DFACE
  8
CATTEXP
 10
   0.000000
 20
   7.700000
 30
   0.000000
 11
   0.000000
 21
   7.700000
 31
   2.400000
 12
   0.090000
 22
   7.700000
 32
   0.430000
 13
   0.090000
 23
   7.700000
 33
   0.430000
 62
 33
  0
3DFACE
  8
CATTEXP
 10
   0.090000
 20
   7.700000
 30
   0.000000
 11
   0.000000
 21
   7.700000
 31
   0.000000
 12
   0.090000
 22
   7.700000
 32
   0.430000
 13
   0.090000
 23
   7.700000
 33
   0.430000
 62
 33
  0
3DFACE
  8
CATTEXP
 10
   0.570000
 20
   7.700000
 30
   0.320000
 11
   0.470000
 21
   7.700000
 31
   0.430000
 12
   2.620000
 22
   7.700000
 32
   0.430000
 13
   2.620000
 23
   7.700000
 33
   0.430000
 62
 33
  0
3DFACE
  8
CATTEXP
 10
   0.470000
 20
   7.700000
 30
   0.000000
 11
   0.470000
 21
   7.700000
 31
   0.430000
 12
   0.570000
 22
   7.700000
 32
   0.320000
 13
   0.570000
 23
   7.700000
 33
   0.320000
 62
 33
  0
3DFACE
  8
CATTEXP
 10
   0.570000
 20
   7.700000
 30
   0.000000
 11
   0.470000
 21
   7.700000
 31
   0.000000
 12
   0.570000
 22
   7.700000
 32
   0.320000
 13
   0.570000
 23
   7.700000
 33
   0.320000
 62
 33
  0
3DFACE
  8
CATTEXP
 10
   2.510000
 20
   7.700000
 30
   0.320000
 11
   0.570000
 21
   7.700000
 31
   0.320000
 12
   2.620000
 22
   7.700000
 32
   0.430000
 13
   2.620000
 23
   7.700000
 33
   0.430000
 62
 33
  0
3DFACE
  8
CATTEXP
 10
   2.510000
 20
   7.700000
 30
   0.000000
 11
   2.510000
 21
   7.700000
 31
   0.320000
 12
   2.620000
 22
   7.700000
 32
   0.430000
 13
   2.620000
 23
   7.700000
 33
   0.430000
 62
 33
  0
3DFACE
  8
CATTEXP
 10
   2.620000
 20
   7.700000
 30
   0.000000
 11
   2.510000
 21
   7.700000
 31
   0.000000
 12
   2.620000
 22
   7.700000
 32
   0.430000
 13
   2.620000
 23
   7.700000
 33
   0.430000
 62
 33
  0
3DFACE
  8
CATTEXP
 10
   2.980000
 20
   7.700000
 30
   0.000000
 11
   2.980000
 21
   7.700000
 31
   0.430000
 12
   3.100000
 22
   7.700000
 32
   0.000000
 13
   3.100000
 23
   7.700000
 33
   0.000000
 62
 33
  0
3DFACE
  8
CATTEXP
 10
   2.030000
 20
   7.700000
 30
   1.580000
 11
   2.030000
 21
   7.700000
 31
   1.040000
 12
   0.950000
 22
   7.700000
 32
   1.040000
 13
   0.950000
 23
   7.700000
 33
   1.580000
 62
 33
  0
3DFACE
  8
CATTEXP
 10
   2.980000
 20
   7.700000
 30
   0.430000
 11
   3.100000
 21
   7.700000
 31
   2.400000
 12
   3.100000
 22
   7.700000
 32
   0.000000
 13
   3.100000
 23
   7.700000
 33
   0.000000
 62
 40
  0
3DFACE
  8
CATTEXP
 10
   0.000000
 20
   7.700000
 30
   2.400000
 11
   3.100000
 21
   7.700000
 31
   2.400000
 12
   2.980000
 22
   7.700000
 32
   0.430000
 13
   2.980000
 23
   7.700000
 33
   0.430000
 62
 40
  0
3DFACE
  8
CATTEXP
 10
   0.090000
 20
   7.700000
 30
   0.430000
 11
   0.000000
 21
   7.700000
 31
   2.400000
 12
   2.980000
 22
   7.700000
 32
   0.430000
 13
   2.980000
 23
   7.700000
 33
   0.430000
 62
 40
  0
3DFACE
  8
CATTEXP
 10
   0.000000
 20
   7.700000
 30
   0.000000
 11
   0.000000
 21
   7.700000
 31
   2.400000
 12
   0.090000
 22
   7.700000
 32
   0.430000
 13
   0.090000
 23
   7.700000
 33
   0.430000
 62
 40
  0
3DFACE
  8
CATTEXP
 10
   0.090000
 20
   7.700000
 30
   0.000000
 11
   0.000000
 21
   7.700000
 31
   0.000000
 12
   0.090000
 22
   7.700000
 32
   0.430000
 13
   0.090000
 23
   7.700000
 33
   0.430000
 62
 40
  0
3DFACE
  8
CATTEXP
 10
   0.570000
 20
   7.700000
 30
   0.320000
 11
   0.470000
 21
   7.700000
 31
   0.430000
 12
   2.620000
 22
   7.700000
 32
   0.430000
 13
   2.620000
 23
   7.700000
 33
   0.430000
 62
 40
  0
3DFACE
  8
CATTEXP
 10
   0.470000
 20
   7.700000
 30
   0.000000
 11
   0.470000
 21
   7.700000
 31
   0.430000
 12
   0.570000
 22
   7.700000
 32
   0.320000
 13
   0.570000
 23
   7.700000
 33
   0.320000
 62
 40
  0
3DFACE
  8
CATTEXP
 10
   0.570000
 20
   7.700000
 30
   0.000000
 11
   0.470000
 21
   7.700000
 31
   0.000000
 12
   0.570000
 22
   7.700000
 32
   0.320000
 13
   0.570000
 23
   7.700000
 33
   0.320000
 62
 40
  0
3DFACE
  8
CATTEXP
 10
   2.510000
 20
   7.700000
 30
   0.320000
 11
   0.570000
 21
   7.700000
 31
   0.320000
 12
   2.620000
 22
   7.700000
 32
   0.430000
 13
   2.620000
 23
   7.700000
 33
   0.430000
 62
 40
  0
3DFACE
  8
CATTEXP
 10
   2.510000
 20
   7.700000
 30
   0.000000
 11
   2.510000
 21
   7.700000
 31
   0.320000
 12
   2.620000
 22
   7.700000
 32
   0.430000
 13
   2.620000
 23
   7.700000
 33
   0.430000
 62
 40
  0
3DFACE
  8
CATTEXP
 10
   2.620000
 20
   7.700000
 30
   0.000000
 11
   2.510000
 21
   7.700000
 31
   0.000000
 12
   2.620000
 22
   7.700000
 32
   0.430000
 13
   2.620000
 23
   7.700000
 33
   0.430000
 62
 40
  0
3DFACE
  8
CATTEXP
 10
   2.980000
 20
   7.700000
 30
   0.000000
 11
   2.980000
 21
   7.700000
 31
   0.430000
 12
   3.100000
 22
   7.700000
 32
   0.000000
 13
   3.100000
 23
   7.700000
 33
   0.000000
 62
 40
  0
3DFACE
  8
CATTEXP
 10
   2.630000
 20
   0.000000
 30
   2.400000
 11
   2.330000
 21
   0.000000
 31
   2.400000
 12
   2.330000
 22
   0.000000
 32
   0.000000
 13
   2.630000
 23
   0.000000
 33
   0.000000
 62
233
  0
3DFACE
  8
CATTEXP
 10
   3.250000
 20
   7.700000
 30
   2.400000
 11
   4.260000
 21
   7.700000
 31
   2.400000
 12
   4.260000
 22
   7.700000
 32
   0.000000
 13
   4.260000
 23
   7.700000
 33
   0.000000
 62
254
  0
3DFACE
  8
CATTEXP
 10
   4.020000
 20
   7.700000
 30
   0.480000
 11
   3.250000
 21
   7.700000
 31
   2.400000
 12
   4.260000
 22
   7.700000
 32
   0.000000
 13
   4.260000
 23
   7.700000
 33
   0.000000
 62
254
  0
3DFACE
  8
CATTEXP
 10
   3.560000
 20
   7.700000
 30
   0.480000
 11
   3.250000
 21
   7.700000
 31
   2.400000
 12
   4.020000
 22
   7.700000
 32
   0.480000
 13
   4.020000
 23
   7.700000
 33
   0.480000
 62
254
  0
3DFACE
  8
CATTEXP
 10
   3.250000
 20
   7.700000
 30
   0.000000
 11
   3.250000
 21
   7.700000
 31
   2.400000
 12
   3.560000
 22
   7.700000
 32
   0.480000
 13
   3.560000
 23
   7.700000
 33
   0.480000
 62
254
  0
3DFACE
  8
CATTEXP
 10
   3.560000
 20
   7.700000
 30
   0.000000
 11
   3.250000
 21
   7.700000
 31
   0.000000
 12
   3.560000
 22
   7.700000
 32
   0.480000
 13
   3.560000
 23
   7.700000
 33
   0.480000
 62
254
  0
3DFACE
  8
CATTEXP
 10
   4.020000
 20
   7.700000
 30
   0.000000
 11
   4.020000
 21
   7.700000
 31
   0.480000
 12
   4.260000
 22
   7.700000
 32
   0.000000
 13
   4.260000
 23
   7.700000
 33
   0.000000
 62
254
  0
3DFACE
  8
CATTEXP
 10
   5.490000
 20
   0.000000
 30
   0.000000
 11
   5.490000
 21
   0.000000
 31
   2.400000
 12
   3.770000
 22
   0.000000
 32
   2.400000
 13
   3.770000
 23
   0.000000
 33
   0.000000
 62
 40
  0
3DFACE
  8
CATTEXP
 10
   4.450000
 20
   6.120000
 30
   2.400000
 11
   5.400000
 21
   5.290000
 31
   2.400000
 12
   5.400000
 22
   7.700000
 32
   2.400000
 13
   5.400000
 23
   7.700000
 33
   2.400000
 62
111
  0
3DFACE
  8
CATTEXP
 10
   3.250000
 20
   5.290000
 30
   2.400000
 11
   5.400000
 21
   5.290000
 31
   2.400000
 12
   4.450000
 22
   6.120000
 32
   2.400000
 13
   4.450000
 23
   6.120000
 33
   2.400000
 62
111
  0
3DFACE
  8
CATTEXP
 10
   3.250000
 20
   6.120000
 30
   2.400000
 11
   3.250000
 21
   5.290000
 31
   2.400000
 12
   4.450000
 22
   6.120000
 32
   2.400000
 13
   4.450000
 23
   6.120000
 33
   2.400000
 62
111
  0
3DFACE
  8
CATTEXP
 10
   4.450000
 20
   7.700000
 30
   2.400000
 11
   4.450000
 21
   6.120000
 31
   2.400000
 12
   5.400000
 22
   7.700000
 32
   2.400000
 13
   5.400000
 23
   7.700000
 33
   2.400000
 62
111
  0
3DFACE
  8
CATTEXP
 10
   3.250000
 20
   7.700000
 30
   2.400000
 11
   3.250000
 21
   6.310000
 31
   2.400000
 12
   4.260000
 22
   6.310000
 32
   2.400000
 13
   4.260000
 23
   7.700000
 33
   2.400000
 62
111
  0
3DFACE
  8
CATTEXP
 10
   0.000000
 20
   5.290000
 30
   2.400000
 11
   3.100000
 21
   5.290000
 31
   2.400000
 12
   3.100000
 22
   7.700000
 32
   2.400000
 13
   3.100000
 23
   7.700000
 33
   2.400000
 62
111
  0
3DFACE
  8
CATTEXP
 10
   0.000000
 20
   7.700000
 30
   2.400000
 11
   0.000000
 21
   5.290000
 31
   2.400000
 12
   3.100000
 22
   7.700000
 32
   2.400000
 13
   3.100000
 23
   7.700000
 33
   2.400000
 62
111
  0
3DFACE
  8
CATTEXP
 10
   4.490000
 20
   7.700000
 30
   0.000000
 11
   4.490000
 21
   7.700000
 31
   2.000000
 12
   5.370000
 22
   7.700000
 32
   2.000000
 13
   5.370000
 23
   7.700000
 33
   0.000000
 62
253
  0
3DFACE
  8
CATTEXP
 10
   7.360000
 20
   5.860000
 30
   0.000000
 11
   5.570000
 21
   5.860000
 31
   0.000000
 12
   5.570000
 22
   6.830000
 32
   0.000000
 13
   5.570000
 23
   6.830000
 33
   0.000000
 62
254
  0
3DFACE
  8
CATTEXP
 10
   7.360000
 20
   6.830000
 30
   0.000000
 11
   7.360000
 21
   5.860000
 31
   0.000000
 12
   5.570000
 22
   6.830000
 32
   0.000000
 13
   5.570000
 23
   6.830000
 33
   0.000000
 62
254
  0
3DFACE
  8
CATTEXP
 10
   4.020000
 20
   7.060000
 30
   0.000000
 11
   4.260000
 21
   6.310000
 31
   0.000000
 12
   3.250000
 22
   6.310000
 32
   0.000000
 13
   3.250000
 23
   6.310000
 33
   0.000000
 62
254
  0
3DFACE
  8
CATTEXP
 10
   4.260000
 20
   7.700000
 30
   0.000000
 11
   4.260000
 21
   6.310000
 31
   0.000000
 12
   4.020000
 22
   7.060000
 32
   0.000000
 13
   4.020000
 23
   7.060000
 33
   0.000000
 62
254
  0
3DFACE
  8
CATTEXP
 10
   4.020000
 20
   7.700000
 30
   0.000000
 11
   4.260000
 21
   7.700000
 31
   0.000000
 12
   4.020000
 22
   7.060000
 32
   0.000000
 13
   4.020000
 23
   7.060000
 33
   0.000000
 62
254
  0
3DFACE
  8
CATTEXP
 10
   3.560000
 20
   7.060000
 30
   0.000000
 11
   4.020000
 21
   7.060000
 31
   0.000000
 12
   3.250000
 22
   6.310000
 32
   0.000000
 13
   3.250000
 23
   6.310000
 33
   0.000000
 62
254
  0
3DFACE
  8
CATTEXP
 10
   3.560000
 20
   7.700000
 30
   0.000000
 11
   3.560000
 21
   7.060000
 31
   0.000000
 12
   3.250000
 22
   6.310000
 32
   0.000000
 13
   3.250000
 23
   6.310000
 33
   0.000000
 62
254
  0
3DFACE
  8
CATTEXP
 10
   3.250000
 20
   7.700000
 30
   0.000000
 11
   3.560000
 21
   7.700000
 31
   0.000000
 12
   3.250000
 22
   6.310000
 32
   0.000000
 13
   3.250000
 23
   6.310000
 33
   0.000000
 62
254
  0
ENDSEC
  0
EOF
